<?xml version="1.0" encoding="utf-8" standalone="no"?>
<!DOCTYPE svg PUBLIC "-//W3C//DTD SVG 1.1//EN"
  "http://www.w3.org/Graphics/SVG/1.1/DTD/svg11.dtd">
<svg xmlns:xlink="http://www.w3.org/1999/xlink" width="576pt" height="576pt" viewBox="0 0 576 576" xmlns="http://www.w3.org/2000/svg" version="1.1">
 <metadata>
  <rdf:RDF xmlns:dc="http://purl.org/dc/elements/1.1/" xmlns:cc="http://creativecommons.org/ns#" xmlns:rdf="http://www.w3.org/1999/02/22-rdf-syntax-ns#">
   <cc:Work>
    <dc:type rdf:resource="http://purl.org/dc/dcmitype/StillImage"/>
    <dc:date>2024-12-01T13:06:42.394319</dc:date>
    <dc:format>image/svg+xml</dc:format>
    <dc:creator>
     <cc:Agent>
      <dc:title>Matplotlib v3.9.2, https://matplotlib.org/</dc:title>
     </cc:Agent>
    </dc:creator>
   </cc:Work>
  </rdf:RDF>
 </metadata>
 <defs>
  <style type="text/css">*{stroke-linejoin: round; stroke-linecap: butt}</style>
 </defs>
 <g id="figure_1">
  <g id="patch_1">
   <path d="M 0 576 
L 576 576 
L 576 0 
L 0 0 
z
" style="fill: #ffffff"/>
  </g>
  <g id="axes_1">
   <g id="patch_2">
    <path d="M 72 512.64 
L 518.4 512.64 
L 518.4 69.12 
L 72 69.12 
z
" style="fill: #ffffff"/>
   </g>
   <g id="PathCollection_1">
    <defs>
     <path id="m1c5cdf8cb0" d="M 0 3 
C 0.795609 3 1.55874 2.683901 2.12132 2.12132 
C 2.683901 1.55874 3 0.795609 3 0 
C 3 -0.795609 2.683901 -1.55874 2.12132 -2.12132 
C 1.55874 -2.683901 0.795609 -3 0 -3 
C -0.795609 -3 -1.55874 -2.683901 -2.12132 -2.12132 
C -2.683901 -1.55874 -3 -0.795609 -3 0 
C -3 0.795609 -2.683901 1.55874 -2.12132 2.12132 
C -1.55874 2.683901 -0.795609 3 0 3 
z
" style="stroke: #ff0000"/>
    </defs>
    <g clip-path="url(#pa5bcc28619)">
     <use xlink:href="#m1c5cdf8cb0" x="396.304768" y="292.029986" style="fill: #ff0000; stroke: #ff0000"/>
     <use xlink:href="#m1c5cdf8cb0" x="396.304768" y="234.064889" style="fill: #ff0000; stroke: #ff0000"/>
     <use xlink:href="#m1c5cdf8cb0" x="445.979357" y="183.928561" style="fill: #ff0000; stroke: #ff0000"/>
     <use xlink:href="#m1c5cdf8cb0" x="497.723387" y="235.161611" style="fill: #ff0000; stroke: #ff0000"/>
     <use xlink:href="#m1c5cdf8cb0" x="498.109091" y="288.996601" style="fill: #ff0000; stroke: #ff0000"/>
    </g>
   </g>
   <g id="matplotlib.axis_1">
    <g id="xtick_1">
     <g id="line2d_1">
      <path d="M 98.087419 512.64 
L 98.087419 69.12 
" clip-path="url(#pa5bcc28619)" style="fill: none; stroke: #b0b0b0; stroke-width: 0.8; stroke-linecap: square"/>
     </g>
     <g id="line2d_2">
      <defs>
       <path id="m4f92be4242" d="M 0 0 
L 0 3.5 
" style="stroke: #000000; stroke-width: 0.8"/>
      </defs>
      <g>
       <use xlink:href="#m4f92be4242" x="98.087419" y="512.64" style="stroke: #000000; stroke-width: 0.8"/>
      </g>
     </g>
     <g id="text_1">
      <!-- −1 -->
      <g transform="translate(90.716325 527.238438) scale(0.1 -0.1)">
       <defs>
        <path id="DejaVuSans-2212" d="M 678 2272 
L 4684 2272 
L 4684 1741 
L 678 1741 
L 678 2272 
z
" transform="scale(0.015625)"/>
        <path id="DejaVuSans-31" d="M 794 531 
L 1825 531 
L 1825 4091 
L 703 3866 
L 703 4441 
L 1819 4666 
L 2450 4666 
L 2450 531 
L 3481 531 
L 3481 0 
L 794 0 
L 794 531 
z
" transform="scale(0.015625)"/>
       </defs>
       <use xlink:href="#DejaVuSans-2212"/>
       <use xlink:href="#DejaVuSans-31" x="83.789062"/>
      </g>
     </g>
    </g>
    <g id="xtick_2">
     <g id="line2d_3">
      <path d="M 156.052515 512.64 
L 156.052515 69.12 
" clip-path="url(#pa5bcc28619)" style="fill: none; stroke: #b0b0b0; stroke-width: 0.8; stroke-linecap: square"/>
     </g>
     <g id="line2d_4">
      <g>
       <use xlink:href="#m4f92be4242" x="156.052515" y="512.64" style="stroke: #000000; stroke-width: 0.8"/>
      </g>
     </g>
     <g id="text_2">
      <!-- 0 -->
      <g transform="translate(152.871265 527.238438) scale(0.1 -0.1)">
       <defs>
        <path id="DejaVuSans-30" d="M 2034 4250 
Q 1547 4250 1301 3770 
Q 1056 3291 1056 2328 
Q 1056 1369 1301 889 
Q 1547 409 2034 409 
Q 2525 409 2770 889 
Q 3016 1369 3016 2328 
Q 3016 3291 2770 3770 
Q 2525 4250 2034 4250 
z
M 2034 4750 
Q 2819 4750 3233 4129 
Q 3647 3509 3647 2328 
Q 3647 1150 3233 529 
Q 2819 -91 2034 -91 
Q 1250 -91 836 529 
Q 422 1150 422 2328 
Q 422 3509 836 4129 
Q 1250 4750 2034 4750 
z
" transform="scale(0.015625)"/>
       </defs>
       <use xlink:href="#DejaVuSans-30"/>
      </g>
     </g>
    </g>
    <g id="xtick_3">
     <g id="line2d_5">
      <path d="M 214.017612 512.64 
L 214.017612 69.12 
" clip-path="url(#pa5bcc28619)" style="fill: none; stroke: #b0b0b0; stroke-width: 0.8; stroke-linecap: square"/>
     </g>
     <g id="line2d_6">
      <g>
       <use xlink:href="#m4f92be4242" x="214.017612" y="512.64" style="stroke: #000000; stroke-width: 0.8"/>
      </g>
     </g>
     <g id="text_3">
      <!-- 1 -->
      <g transform="translate(210.836362 527.238438) scale(0.1 -0.1)">
       <use xlink:href="#DejaVuSans-31"/>
      </g>
     </g>
    </g>
    <g id="xtick_4">
     <g id="line2d_7">
      <path d="M 271.982709 512.64 
L 271.982709 69.12 
" clip-path="url(#pa5bcc28619)" style="fill: none; stroke: #b0b0b0; stroke-width: 0.8; stroke-linecap: square"/>
     </g>
     <g id="line2d_8">
      <g>
       <use xlink:href="#m4f92be4242" x="271.982709" y="512.64" style="stroke: #000000; stroke-width: 0.8"/>
      </g>
     </g>
     <g id="text_4">
      <!-- 2 -->
      <g transform="translate(268.801459 527.238438) scale(0.1 -0.1)">
       <defs>
        <path id="DejaVuSans-32" d="M 1228 531 
L 3431 531 
L 3431 0 
L 469 0 
L 469 531 
Q 828 903 1448 1529 
Q 2069 2156 2228 2338 
Q 2531 2678 2651 2914 
Q 2772 3150 2772 3378 
Q 2772 3750 2511 3984 
Q 2250 4219 1831 4219 
Q 1534 4219 1204 4116 
Q 875 4013 500 3803 
L 500 4441 
Q 881 4594 1212 4672 
Q 1544 4750 1819 4750 
Q 2544 4750 2975 4387 
Q 3406 4025 3406 3419 
Q 3406 3131 3298 2873 
Q 3191 2616 2906 2266 
Q 2828 2175 2409 1742 
Q 1991 1309 1228 531 
z
" transform="scale(0.015625)"/>
       </defs>
       <use xlink:href="#DejaVuSans-32"/>
      </g>
     </g>
    </g>
    <g id="xtick_5">
     <g id="line2d_9">
      <path d="M 329.947805 512.64 
L 329.947805 69.12 
" clip-path="url(#pa5bcc28619)" style="fill: none; stroke: #b0b0b0; stroke-width: 0.8; stroke-linecap: square"/>
     </g>
     <g id="line2d_10">
      <g>
       <use xlink:href="#m4f92be4242" x="329.947805" y="512.64" style="stroke: #000000; stroke-width: 0.8"/>
      </g>
     </g>
     <g id="text_5">
      <!-- 3 -->
      <g transform="translate(326.766555 527.238438) scale(0.1 -0.1)">
       <defs>
        <path id="DejaVuSans-33" d="M 2597 2516 
Q 3050 2419 3304 2112 
Q 3559 1806 3559 1356 
Q 3559 666 3084 287 
Q 2609 -91 1734 -91 
Q 1441 -91 1130 -33 
Q 819 25 488 141 
L 488 750 
Q 750 597 1062 519 
Q 1375 441 1716 441 
Q 2309 441 2620 675 
Q 2931 909 2931 1356 
Q 2931 1769 2642 2001 
Q 2353 2234 1838 2234 
L 1294 2234 
L 1294 2753 
L 1863 2753 
Q 2328 2753 2575 2939 
Q 2822 3125 2822 3475 
Q 2822 3834 2567 4026 
Q 2313 4219 1838 4219 
Q 1578 4219 1281 4162 
Q 984 4106 628 3988 
L 628 4550 
Q 988 4650 1302 4700 
Q 1616 4750 1894 4750 
Q 2613 4750 3031 4423 
Q 3450 4097 3450 3541 
Q 3450 3153 3228 2886 
Q 3006 2619 2597 2516 
z
" transform="scale(0.015625)"/>
       </defs>
       <use xlink:href="#DejaVuSans-33"/>
      </g>
     </g>
    </g>
    <g id="xtick_6">
     <g id="line2d_11">
      <path d="M 387.912902 512.64 
L 387.912902 69.12 
" clip-path="url(#pa5bcc28619)" style="fill: none; stroke: #b0b0b0; stroke-width: 0.8; stroke-linecap: square"/>
     </g>
     <g id="line2d_12">
      <g>
       <use xlink:href="#m4f92be4242" x="387.912902" y="512.64" style="stroke: #000000; stroke-width: 0.8"/>
      </g>
     </g>
     <g id="text_6">
      <!-- 4 -->
      <g transform="translate(384.731652 527.238438) scale(0.1 -0.1)">
       <defs>
        <path id="DejaVuSans-34" d="M 2419 4116 
L 825 1625 
L 2419 1625 
L 2419 4116 
z
M 2253 4666 
L 3047 4666 
L 3047 1625 
L 3713 1625 
L 3713 1100 
L 3047 1100 
L 3047 0 
L 2419 0 
L 2419 1100 
L 313 1100 
L 313 1709 
L 2253 4666 
z
" transform="scale(0.015625)"/>
       </defs>
       <use xlink:href="#DejaVuSans-34"/>
      </g>
     </g>
    </g>
    <g id="xtick_7">
     <g id="line2d_13">
      <path d="M 445.877998 512.64 
L 445.877998 69.12 
" clip-path="url(#pa5bcc28619)" style="fill: none; stroke: #b0b0b0; stroke-width: 0.8; stroke-linecap: square"/>
     </g>
     <g id="line2d_14">
      <g>
       <use xlink:href="#m4f92be4242" x="445.877998" y="512.64" style="stroke: #000000; stroke-width: 0.8"/>
      </g>
     </g>
     <g id="text_7">
      <!-- 5 -->
      <g transform="translate(442.696748 527.238438) scale(0.1 -0.1)">
       <defs>
        <path id="DejaVuSans-35" d="M 691 4666 
L 3169 4666 
L 3169 4134 
L 1269 4134 
L 1269 2991 
Q 1406 3038 1543 3061 
Q 1681 3084 1819 3084 
Q 2600 3084 3056 2656 
Q 3513 2228 3513 1497 
Q 3513 744 3044 326 
Q 2575 -91 1722 -91 
Q 1428 -91 1123 -41 
Q 819 9 494 109 
L 494 744 
Q 775 591 1075 516 
Q 1375 441 1709 441 
Q 2250 441 2565 725 
Q 2881 1009 2881 1497 
Q 2881 1984 2565 2268 
Q 2250 2553 1709 2553 
Q 1456 2553 1204 2497 
Q 953 2441 691 2322 
L 691 4666 
z
" transform="scale(0.015625)"/>
       </defs>
       <use xlink:href="#DejaVuSans-35"/>
      </g>
     </g>
    </g>
    <g id="xtick_8">
     <g id="line2d_15">
      <path d="M 503.843095 512.64 
L 503.843095 69.12 
" clip-path="url(#pa5bcc28619)" style="fill: none; stroke: #b0b0b0; stroke-width: 0.8; stroke-linecap: square"/>
     </g>
     <g id="line2d_16">
      <g>
       <use xlink:href="#m4f92be4242" x="503.843095" y="512.64" style="stroke: #000000; stroke-width: 0.8"/>
      </g>
     </g>
     <g id="text_8">
      <!-- 6 -->
      <g transform="translate(500.661845 527.238438) scale(0.1 -0.1)">
       <defs>
        <path id="DejaVuSans-36" d="M 2113 2584 
Q 1688 2584 1439 2293 
Q 1191 2003 1191 1497 
Q 1191 994 1439 701 
Q 1688 409 2113 409 
Q 2538 409 2786 701 
Q 3034 994 3034 1497 
Q 3034 2003 2786 2293 
Q 2538 2584 2113 2584 
z
M 3366 4563 
L 3366 3988 
Q 3128 4100 2886 4159 
Q 2644 4219 2406 4219 
Q 1781 4219 1451 3797 
Q 1122 3375 1075 2522 
Q 1259 2794 1537 2939 
Q 1816 3084 2150 3084 
Q 2853 3084 3261 2657 
Q 3669 2231 3669 1497 
Q 3669 778 3244 343 
Q 2819 -91 2113 -91 
Q 1303 -91 875 529 
Q 447 1150 447 2328 
Q 447 3434 972 4092 
Q 1497 4750 2381 4750 
Q 2619 4750 2861 4703 
Q 3103 4656 3366 4563 
z
" transform="scale(0.015625)"/>
       </defs>
       <use xlink:href="#DejaVuSans-36"/>
      </g>
     </g>
    </g>
    <g id="text_9">
     <!-- x -->
     <g transform="translate(292.240625 540.916563) scale(0.1 -0.1)">
      <defs>
       <path id="DejaVuSans-78" d="M 3513 3500 
L 2247 1797 
L 3578 0 
L 2900 0 
L 1881 1375 
L 863 0 
L 184 0 
L 1544 1831 
L 300 3500 
L 978 3500 
L 1906 2253 
L 2834 3500 
L 3513 3500 
z
" transform="scale(0.015625)"/>
      </defs>
      <use xlink:href="#DejaVuSans-78"/>
     </g>
    </g>
   </g>
   <g id="matplotlib.axis_2">
    <g id="ytick_1">
     <g id="line2d_17">
      <path d="M 72 509.537202 
L 518.4 509.537202 
" clip-path="url(#pa5bcc28619)" style="fill: none; stroke: #b0b0b0; stroke-width: 0.8; stroke-linecap: square"/>
     </g>
     <g id="line2d_18">
      <defs>
       <path id="m1994a78112" d="M 0 0 
L -3.5 0 
" style="stroke: #000000; stroke-width: 0.8"/>
      </defs>
      <g>
       <use xlink:href="#m1994a78112" x="72" y="509.537202" style="stroke: #000000; stroke-width: 0.8"/>
      </g>
     </g>
     <g id="text_10">
      <!-- −2 -->
      <g transform="translate(50.257812 513.336421) scale(0.1 -0.1)">
       <use xlink:href="#DejaVuSans-2212"/>
       <use xlink:href="#DejaVuSans-32" x="83.789062"/>
      </g>
     </g>
    </g>
    <g id="ytick_2">
     <g id="line2d_19">
      <path d="M 72 451.572106 
L 518.4 451.572106 
" clip-path="url(#pa5bcc28619)" style="fill: none; stroke: #b0b0b0; stroke-width: 0.8; stroke-linecap: square"/>
     </g>
     <g id="line2d_20">
      <g>
       <use xlink:href="#m1994a78112" x="72" y="451.572106" style="stroke: #000000; stroke-width: 0.8"/>
      </g>
     </g>
     <g id="text_11">
      <!-- −1 -->
      <g transform="translate(50.257812 455.371324) scale(0.1 -0.1)">
       <use xlink:href="#DejaVuSans-2212"/>
       <use xlink:href="#DejaVuSans-31" x="83.789062"/>
      </g>
     </g>
    </g>
    <g id="ytick_3">
     <g id="line2d_21">
      <path d="M 72 393.607009 
L 518.4 393.607009 
" clip-path="url(#pa5bcc28619)" style="fill: none; stroke: #b0b0b0; stroke-width: 0.8; stroke-linecap: square"/>
     </g>
     <g id="line2d_22">
      <g>
       <use xlink:href="#m1994a78112" x="72" y="393.607009" style="stroke: #000000; stroke-width: 0.8"/>
      </g>
     </g>
     <g id="text_12">
      <!-- 0 -->
      <g transform="translate(58.6375 397.406228) scale(0.1 -0.1)">
       <use xlink:href="#DejaVuSans-30"/>
      </g>
     </g>
    </g>
    <g id="ytick_4">
     <g id="line2d_23">
      <path d="M 72 335.641912 
L 518.4 335.641912 
" clip-path="url(#pa5bcc28619)" style="fill: none; stroke: #b0b0b0; stroke-width: 0.8; stroke-linecap: square"/>
     </g>
     <g id="line2d_24">
      <g>
       <use xlink:href="#m1994a78112" x="72" y="335.641912" style="stroke: #000000; stroke-width: 0.8"/>
      </g>
     </g>
     <g id="text_13">
      <!-- 1 -->
      <g transform="translate(58.6375 339.441131) scale(0.1 -0.1)">
       <use xlink:href="#DejaVuSans-31"/>
      </g>
     </g>
    </g>
    <g id="ytick_5">
     <g id="line2d_25">
      <path d="M 72 277.676816 
L 518.4 277.676816 
" clip-path="url(#pa5bcc28619)" style="fill: none; stroke: #b0b0b0; stroke-width: 0.8; stroke-linecap: square"/>
     </g>
     <g id="line2d_26">
      <g>
       <use xlink:href="#m1994a78112" x="72" y="277.676816" style="stroke: #000000; stroke-width: 0.8"/>
      </g>
     </g>
     <g id="text_14">
      <!-- 2 -->
      <g transform="translate(58.6375 281.476034) scale(0.1 -0.1)">
       <use xlink:href="#DejaVuSans-32"/>
      </g>
     </g>
    </g>
    <g id="ytick_6">
     <g id="line2d_27">
      <path d="M 72 219.711719 
L 518.4 219.711719 
" clip-path="url(#pa5bcc28619)" style="fill: none; stroke: #b0b0b0; stroke-width: 0.8; stroke-linecap: square"/>
     </g>
     <g id="line2d_28">
      <g>
       <use xlink:href="#m1994a78112" x="72" y="219.711719" style="stroke: #000000; stroke-width: 0.8"/>
      </g>
     </g>
     <g id="text_15">
      <!-- 3 -->
      <g transform="translate(58.6375 223.510938) scale(0.1 -0.1)">
       <use xlink:href="#DejaVuSans-33"/>
      </g>
     </g>
    </g>
    <g id="ytick_7">
     <g id="line2d_29">
      <path d="M 72 161.746623 
L 518.4 161.746623 
" clip-path="url(#pa5bcc28619)" style="fill: none; stroke: #b0b0b0; stroke-width: 0.8; stroke-linecap: square"/>
     </g>
     <g id="line2d_30">
      <g>
       <use xlink:href="#m1994a78112" x="72" y="161.746623" style="stroke: #000000; stroke-width: 0.8"/>
      </g>
     </g>
     <g id="text_16">
      <!-- 4 -->
      <g transform="translate(58.6375 165.545841) scale(0.1 -0.1)">
       <use xlink:href="#DejaVuSans-34"/>
      </g>
     </g>
    </g>
    <g id="ytick_8">
     <g id="line2d_31">
      <path d="M 72 103.781526 
L 518.4 103.781526 
" clip-path="url(#pa5bcc28619)" style="fill: none; stroke: #b0b0b0; stroke-width: 0.8; stroke-linecap: square"/>
     </g>
     <g id="line2d_32">
      <g>
       <use xlink:href="#m1994a78112" x="72" y="103.781526" style="stroke: #000000; stroke-width: 0.8"/>
      </g>
     </g>
     <g id="text_17">
      <!-- 5 -->
      <g transform="translate(58.6375 107.580745) scale(0.1 -0.1)">
       <use xlink:href="#DejaVuSans-35"/>
      </g>
     </g>
    </g>
    <g id="text_18">
     <!-- y -->
     <g transform="translate(44.178125 293.839375) rotate(-90) scale(0.1 -0.1)">
      <defs>
       <path id="DejaVuSans-79" d="M 2059 -325 
Q 1816 -950 1584 -1140 
Q 1353 -1331 966 -1331 
L 506 -1331 
L 506 -850 
L 844 -850 
Q 1081 -850 1212 -737 
Q 1344 -625 1503 -206 
L 1606 56 
L 191 3500 
L 800 3500 
L 1894 763 
L 2988 3500 
L 3597 3500 
L 2059 -325 
z
" transform="scale(0.015625)"/>
      </defs>
      <use xlink:href="#DejaVuSans-79"/>
     </g>
    </g>
   </g>
   <g id="line2d_33">
    <path d="M 396.304768 292.029986 
L 396.304768 234.064889 
" clip-path="url(#pa5bcc28619)" style="fill: none; stroke: #000000; stroke-opacity: 0.4; stroke-width: 1.5; stroke-linecap: square"/>
   </g>
   <g id="line2d_34">
    <path d="M 396.304768 292.029986 
L 498.109091 288.996601 
" clip-path="url(#pa5bcc28619)" style="fill: none; stroke: #000000; stroke-opacity: 0.4; stroke-width: 1.5; stroke-linecap: square"/>
   </g>
   <g id="line2d_35">
    <path d="M 396.304768 234.064889 
L 396.304768 292.029986 
" clip-path="url(#pa5bcc28619)" style="fill: none; stroke: #000000; stroke-opacity: 0.4; stroke-width: 1.5; stroke-linecap: square"/>
   </g>
   <g id="line2d_36">
    <path d="M 396.304768 234.064889 
L 445.979357 183.928561 
" clip-path="url(#pa5bcc28619)" style="fill: none; stroke: #000000; stroke-opacity: 0.4; stroke-width: 1.5; stroke-linecap: square"/>
   </g>
   <g id="line2d_37">
    <path d="M 396.304768 234.064889 
L 497.723387 235.161611 
" clip-path="url(#pa5bcc28619)" style="fill: none; stroke: #000000; stroke-opacity: 0.4; stroke-width: 1.5; stroke-linecap: square"/>
   </g>
   <g id="line2d_38">
    <path d="M 396.304768 234.064889 
L 498.109091 288.996601 
" clip-path="url(#pa5bcc28619)" style="fill: none; stroke: #000000; stroke-opacity: 0.4; stroke-width: 1.5; stroke-linecap: square"/>
   </g>
   <g id="line2d_39">
    <path d="M 445.979357 183.928561 
L 396.304768 234.064889 
" clip-path="url(#pa5bcc28619)" style="fill: none; stroke: #000000; stroke-opacity: 0.4; stroke-width: 1.5; stroke-linecap: square"/>
   </g>
   <g id="line2d_40">
    <path d="M 445.979357 183.928561 
L 497.723387 235.161611 
" clip-path="url(#pa5bcc28619)" style="fill: none; stroke: #000000; stroke-opacity: 0.4; stroke-width: 1.5; stroke-linecap: square"/>
   </g>
   <g id="line2d_41">
    <path d="M 497.723387 235.161611 
L 396.304768 234.064889 
" clip-path="url(#pa5bcc28619)" style="fill: none; stroke: #000000; stroke-opacity: 0.4; stroke-width: 1.5; stroke-linecap: square"/>
   </g>
   <g id="line2d_42">
    <path d="M 497.723387 235.161611 
L 445.979357 183.928561 
" clip-path="url(#pa5bcc28619)" style="fill: none; stroke: #000000; stroke-opacity: 0.4; stroke-width: 1.5; stroke-linecap: square"/>
   </g>
   <g id="line2d_43">
    <path d="M 497.723387 235.161611 
L 498.109091 288.996601 
" clip-path="url(#pa5bcc28619)" style="fill: none; stroke: #000000; stroke-opacity: 0.4; stroke-width: 1.5; stroke-linecap: square"/>
   </g>
   <g id="line2d_44">
    <path d="M 498.109091 288.996601 
L 396.304768 292.029986 
" clip-path="url(#pa5bcc28619)" style="fill: none; stroke: #000000; stroke-opacity: 0.4; stroke-width: 1.5; stroke-linecap: square"/>
   </g>
   <g id="line2d_45">
    <path d="M 498.109091 288.996601 
L 396.304768 234.064889 
" clip-path="url(#pa5bcc28619)" style="fill: none; stroke: #000000; stroke-opacity: 0.4; stroke-width: 1.5; stroke-linecap: square"/>
   </g>
   <g id="line2d_46">
    <path d="M 498.109091 288.996601 
L 497.723387 235.161611 
" clip-path="url(#pa5bcc28619)" style="fill: none; stroke: #000000; stroke-opacity: 0.4; stroke-width: 1.5; stroke-linecap: square"/>
   </g>
   <g id="line2d_47">
    <path d="M 156.052515 393.607009 
L 396.304768 292.029986 
L 396.304768 292.029986 
" clip-path="url(#pa5bcc28619)" style="fill: none; stroke-dasharray: 5.55,2.4; stroke-dashoffset: 0; stroke: #1f77b4; stroke-width: 1.5"/>
   </g>
   <g id="line2d_48">
    <path d="M 156.052515 335.641912 
L 396.304768 234.064889 
L 396.304768 234.064889 
" clip-path="url(#pa5bcc28619)" style="fill: none; stroke-dasharray: 5.55,2.4; stroke-dashoffset: 0; stroke: #ff7f0e; stroke-width: 1.5"/>
   </g>
   <g id="line2d_49">
    <path d="M 92.290909 271.880306 
L 106.993962 265.779602 
L 113.803792 263.136613 
L 120.25245 260.76349 
L 126.345912 258.648716 
L 137.511062 255.124662 
L 147.413313 252.40618 
L 156.188747 250.3332 
L 163.973836 248.766358 
L 170.894095 247.592783 
L 177.059987 246.72419 
L 185.098706 245.848719 
L 191.915502 245.343079 
L 199.458 245.054004 
L 205.575858 245.049353 
L 211.65395 245.280354 
L 217.197302 245.74056 
L 221.925468 246.377874 
L 225.768197 247.123975 
L 229.084186 248.004568 
L 231.770275 248.957815 
L 233.906947 249.950982 
L 235.628632 250.985061 
L 237.055358 252.087067 
L 238.266631 253.297503 
L 239.25155 254.588642 
L 240.030034 255.964341 
L 240.597115 257.399589 
L 240.95713 258.91361 
L 241.087051 260.402872 
L 240.993807 261.895344 
L 240.681734 263.326294 
L 240.153706 264.69944 
L 239.429596 265.973544 
L 238.486433 267.181064 
L 237.332382 268.287362 
L 236.016009 269.241387 
L 234.526609 270.047877 
L 232.872349 270.68672 
L 231.580139 271.024374 
L 232.697032 270.854228 
L 234.932042 270.675198 
L 236.436314 270.760035 
L 236.904776 270.8773 
L 236.657123 270.684339 
L 236.290224 270.160403 
L 236.054581 269.429331 
L 236.008548 268.541473 
L 236.185953 267.515658 
L 236.603051 266.413885 
L 237.279248 265.255417 
L 238.189646 264.122767 
L 239.358904 263.018573 
L 240.788141 261.987634 
L 242.384432 261.120005 
L 244.117682 260.437135 
L 245.956294 259.959101 
L 247.858596 259.702425 
L 249.750583 259.670397 
L 251.677898 259.859966 
L 253.431373 260.251126 
L 254.742206 260.760287 
L 255.848394 261.429162 
L 256.895501 262.323806 
L 258.036969 263.615056 
L 259.184243 264.837313 
L 260.14002 265.506595 
L 261.234194 266.005913 
L 262.46965 266.328098 
L 263.778894 266.445533 
L 265.132657 266.348336 
L 266.458633 266.033263 
L 267.693767 265.509449 
L 268.738502 264.823293 
L 269.547872 264.026377 
L 270.129607 263.144063 
L 270.626311 261.947771 
L 271.40192 260.13435 
L 272.224084 258.808273 
L 273.294722 257.51162 
L 274.581195 256.304286 
L 276.115133 255.177912 
L 277.815981 254.207932 
L 279.710231 253.390409 
L 281.724176 252.767488 
L 283.875934 252.335944 
L 286.42973 252.062805 
L 291.389382 251.590856 
L 293.370845 251.133599 
L 295.05373 250.522818 
L 296.51934 249.758631 
L 297.922411 248.769577 
L 300.682899 246.449017 
L 303.330604 244.390506 
L 305.893112 242.685876 
L 308.607807 241.151615 
L 311.48143 239.785575 
L 314.534038 238.584856 
L 318.482967 237.295394 
L 323.363676 235.661428 
L 326.238366 234.450094 
L 332.33922 231.745367 
L 335.275715 230.8341 
L 342.585076 228.669845 
L 345.233995 227.577119 
L 347.868096 226.244012 
L 350.80541 224.497895 
L 357.689841 220.284366 
L 359.873394 219.315346 
L 362.17667 218.542898 
L 364.961683 217.857835 
L 372.427109 216.154245 
L 374.832978 215.290676 
L 377.130252 214.23098 
L 379.522061 212.876319 
L 382.585338 210.857959 
L 386.280709 208.47036 
L 388.642445 207.222901 
L 391.065503 206.196952 
L 393.7993 205.287001 
L 397.779378 204.225986 
L 402.39724 202.942601 
L 405.255928 201.909533 
L 408.027574 200.666565 
L 411.403063 198.887439 
L 417.145319 195.847781 
L 420.596742 194.308616 
L 424.750328 192.714857 
L 433.758819 189.329786 
L 438.537513 187.207063 
L 445.488805 184.130334 
L 445.979357 183.928561 
L 445.979357 183.928561 
" clip-path="url(#pa5bcc28619)" style="fill: none; stroke: #2ca02c; stroke-width: 1.5; stroke-linecap: square"/>
   </g>
   <g id="line2d_50">
    <path d="M 283.575728 306.659364 
L 281.824775 307.347693 
L 279.747104 307.873424 
L 278.074313 308.017783 
L 277.57767 307.982375 
L 278.074214 308.122932 
L 279.335045 308.651571 
L 281.111523 309.645225 
L 283.165062 311.062344 
L 285.30055 312.782912 
L 287.88803 315.139591 
L 291.564832 318.849002 
L 300.410756 327.983168 
L 302.819209 330.095783 
L 304.214194 331.057937 
L 304.325567 331.10939 
L 303.857545 331.000349 
L 302.480694 330.881474 
L 300.228002 330.926481 
L 296.768281 331.231161 
L 293.738436 331.697822 
L 293.092909 331.855388 
L 293.802149 331.572875 
L 295.687872 330.616609 
L 298.979381 328.652684 
L 300.85651 327.657894 
L 302.478555 326.853102 
L 303.72359 325.947439 
L 304.898186 324.819641 
L 305.855681 323.598417 
L 306.599261 322.299562 
L 307.138324 320.923316 
L 307.474062 319.472065 
L 307.592568 317.990361 
L 307.486068 316.590602 
L 307.14827 313.865172 
L 307.359887 312.88167 
L 307.787439 311.956388 
L 308.412427 311.12578 
L 309.211753 310.432811 
L 310.135227 309.922772 
L 311.198035 309.590983 
L 312.400962 309.451259 
L 313.880789 309.515622 
L 315.82539 309.59677 
L 316.957402 309.385932 
L 318.116252 308.940108 
L 319.348746 308.222041 
L 320.754684 307.134202 
L 322.769307 305.258117 
L 327.029967 301.242233 
L 328.985817 299.734997 
L 330.68048 298.700523 
L 332.301627 297.967933 
L 333.941481 297.4677 
L 335.68858 297.163797 
L 337.595533 297.059212 
L 339.64031 297.171561 
L 341.877456 297.520288 
L 344.643307 298.19203 
L 348.161044 299.029096 
L 349.909632 299.195573 
L 351.59089 299.131199 
L 353.246843 298.846308 
L 354.929508 298.330817 
L 356.660985 297.561566 
L 358.405715 296.540762 
L 360.243186 295.204266 
L 362.328869 293.398345 
L 368.003693 288.295899 
L 369.785746 287.129336 
L 371.566942 286.227418 
L 373.398984 285.546448 
L 375.333415 285.064079 
L 377.518953 284.756444 
L 384.040474 284.022324 
L 386.034503 283.44315 
L 388.027645 282.627353 
L 390.116414 281.524108 
L 392.546576 279.973192 
L 399.659438 275.254698 
L 402.106623 274.013559 
L 404.594482 273.003271 
L 407.493007 272.07814 
L 415.889481 269.557152 
L 419.327184 268.175575 
L 425.126504 265.54829 
L 431.307854 262.858366 
L 441.602506 258.454811 
L 452.839544 253.35305 
L 456.906579 251.898714 
L 465.116357 249.03452 
L 468.454597 247.565803 
L 472.288289 245.618034 
L 479.555668 241.877114 
L 482.869366 240.472743 
L 486.574389 239.155282 
L 495.586387 236.064204 
L 497.723387 235.161611 
L 497.723387 235.161611 
" clip-path="url(#pa5bcc28619)" style="fill: none; stroke: #d62728; stroke-width: 1.5; stroke-linecap: square"/>
   </g>
   <g id="line2d_51">
    <path d="M 300.965257 358.827951 
L 296.228694 360.749825 
L 292.171025 362.110232 
L 288.756191 363.0153 
L 285.956642 363.560416 
L 282.858207 363.895727 
L 280.639184 363.870789 
L 280.246792 363.819191 
L 280.751996 363.962622 
L 281.941931 364.434581 
L 283.5927 365.297519 
L 285.497363 366.549972 
L 287.485846 368.144286 
L 289.432589 370.006868 
L 291.254348 372.054963 
L 292.902921 374.207946 
L 294.796858 377.118943 
L 296.343365 379.951997 
L 297.835844 383.238116 
L 299.100923 386.67003 
L 300.052949 389.900346 
L 300.862017 393.445084 
L 301.536569 397.500955 
L 301.587882 397.831439 
L 301.364443 397.083761 
L 300.872684 396.176228 
L 300.025352 395.101461 
L 298.769592 393.880131 
L 297.104494 392.576968 
L 295.197145 391.361524 
L 293.433873 390.485497 
L 292.835485 390.272104 
L 293.367321 390.346331 
L 294.640533 390.342664 
L 296.119971 390.116659 
L 297.607574 389.667145 
L 299.016711 389.010579 
L 300.245035 388.196796 
L 301.255366 387.267777 
L 302.062713 386.225093 
L 302.658275 385.098467 
L 303.059832 383.86018 
L 303.245143 382.571398 
L 303.213983 381.244284 
L 302.962109 379.903432 
L 302.453608 378.458837 
L 302.319866 377.62486 
L 302.353273 376.454808 
L 302.60855 375.21133 
L 303.085337 373.986406 
L 303.742204 372.89688 
L 304.528944 372.005934 
L 305.409733 371.340055 
L 306.334062 370.919599 
L 307.255321 370.741956 
L 309.908549 370.480168 
L 310.915883 369.998345 
L 311.870145 369.298329 
L 312.72165 368.401795 
L 313.449152 367.310526 
L 314.013952 366.061741 
L 314.431189 364.580909 
L 315.539241 359.890839 
L 316.193781 358.658591 
L 317.021566 357.567874 
L 318.011156 356.627127 
L 319.14463 355.851784 
L 320.431722 355.243684 
L 321.831976 354.827607 
L 323.403272 354.593295 
L 325.198367 354.553576 
L 327.343183 354.739358 
L 330.369297 355.254375 
L 333.447969 355.720533 
L 335.470824 355.790479 
L 337.452614 355.634724 
L 339.507219 355.251123 
L 341.75207 354.599248 
L 344.212435 353.645326 
L 347.162017 352.250048 
L 355.69199 348.038598 
L 358.028216 347.26276 
L 360.298528 346.740884 
L 362.675656 346.424378 
L 369.29849 345.718225 
L 371.061807 345.154774 
L 372.808367 344.361227 
L 374.635633 343.282734 
L 376.784929 341.740662 
L 382.605395 337.412714 
L 384.835819 336.124529 
L 387.011916 335.124817 
L 389.232547 334.349961 
L 391.733367 333.721277 
L 398.761751 332.119847 
L 400.965756 331.267417 
L 403.240594 330.143931 
L 406.070259 328.479702 
L 411.520824 325.230266 
L 414.091949 323.99697 
L 416.663092 323.010947 
L 419.692085 322.100399 
L 426.119033 320.24466 
L 428.872515 319.153501 
L 431.980202 317.669238 
L 441.792288 312.786496 
L 445.185756 311.475705 
L 451.008498 309.533354 
L 454.54491 308.199495 
L 457.776259 306.73272 
L 462.798623 304.156735 
L 467.069748 302.080197 
L 470.531934 300.650214 
L 474.650044 299.207877 
L 480.905001 297.019317 
L 484.309953 295.556755 
L 488.488775 293.495464 
L 494.813024 290.3854 
L 498.109091 288.996601 
L 498.109091 288.996601 
" clip-path="url(#pa5bcc28619)" style="fill: none; stroke: #9467bd; stroke-width: 1.5; stroke-linecap: square"/>
   </g>
   <g id="patch_3">
    <path d="M 72 512.64 
L 72 69.12 
" style="fill: none; stroke: #000000; stroke-width: 0.8; stroke-linejoin: miter; stroke-linecap: square"/>
   </g>
   <g id="patch_4">
    <path d="M 518.4 512.64 
L 518.4 69.12 
" style="fill: none; stroke: #000000; stroke-width: 0.8; stroke-linejoin: miter; stroke-linecap: square"/>
   </g>
   <g id="patch_5">
    <path d="M 72 512.64 
L 518.4 512.64 
" style="fill: none; stroke: #000000; stroke-width: 0.8; stroke-linejoin: miter; stroke-linecap: square"/>
   </g>
   <g id="patch_6">
    <path d="M 72 69.12 
L 518.4 69.12 
" style="fill: none; stroke: #000000; stroke-width: 0.8; stroke-linejoin: miter; stroke-linecap: square"/>
   </g>
   <g id="text_19">
    <!-- Bearing-based Formation Control of Unicycle Agents -->
    <g transform="translate(138.154687 63.12) scale(0.12 -0.12)">
     <defs>
      <path id="DejaVuSans-42" d="M 1259 2228 
L 1259 519 
L 2272 519 
Q 2781 519 3026 730 
Q 3272 941 3272 1375 
Q 3272 1813 3026 2020 
Q 2781 2228 2272 2228 
L 1259 2228 
z
M 1259 4147 
L 1259 2741 
L 2194 2741 
Q 2656 2741 2882 2914 
Q 3109 3088 3109 3444 
Q 3109 3797 2882 3972 
Q 2656 4147 2194 4147 
L 1259 4147 
z
M 628 4666 
L 2241 4666 
Q 2963 4666 3353 4366 
Q 3744 4066 3744 3513 
Q 3744 3084 3544 2831 
Q 3344 2578 2956 2516 
Q 3422 2416 3680 2098 
Q 3938 1781 3938 1306 
Q 3938 681 3513 340 
Q 3088 0 2303 0 
L 628 0 
L 628 4666 
z
" transform="scale(0.015625)"/>
      <path id="DejaVuSans-65" d="M 3597 1894 
L 3597 1613 
L 953 1613 
Q 991 1019 1311 708 
Q 1631 397 2203 397 
Q 2534 397 2845 478 
Q 3156 559 3463 722 
L 3463 178 
Q 3153 47 2828 -22 
Q 2503 -91 2169 -91 
Q 1331 -91 842 396 
Q 353 884 353 1716 
Q 353 2575 817 3079 
Q 1281 3584 2069 3584 
Q 2775 3584 3186 3129 
Q 3597 2675 3597 1894 
z
M 3022 2063 
Q 3016 2534 2758 2815 
Q 2500 3097 2075 3097 
Q 1594 3097 1305 2825 
Q 1016 2553 972 2059 
L 3022 2063 
z
" transform="scale(0.015625)"/>
      <path id="DejaVuSans-61" d="M 2194 1759 
Q 1497 1759 1228 1600 
Q 959 1441 959 1056 
Q 959 750 1161 570 
Q 1363 391 1709 391 
Q 2188 391 2477 730 
Q 2766 1069 2766 1631 
L 2766 1759 
L 2194 1759 
z
M 3341 1997 
L 3341 0 
L 2766 0 
L 2766 531 
Q 2569 213 2275 61 
Q 1981 -91 1556 -91 
Q 1019 -91 701 211 
Q 384 513 384 1019 
Q 384 1609 779 1909 
Q 1175 2209 1959 2209 
L 2766 2209 
L 2766 2266 
Q 2766 2663 2505 2880 
Q 2244 3097 1772 3097 
Q 1472 3097 1187 3025 
Q 903 2953 641 2809 
L 641 3341 
Q 956 3463 1253 3523 
Q 1550 3584 1831 3584 
Q 2591 3584 2966 3190 
Q 3341 2797 3341 1997 
z
" transform="scale(0.015625)"/>
      <path id="DejaVuSans-72" d="M 2631 2963 
Q 2534 3019 2420 3045 
Q 2306 3072 2169 3072 
Q 1681 3072 1420 2755 
Q 1159 2438 1159 1844 
L 1159 0 
L 581 0 
L 581 3500 
L 1159 3500 
L 1159 2956 
Q 1341 3275 1631 3429 
Q 1922 3584 2338 3584 
Q 2397 3584 2469 3576 
Q 2541 3569 2628 3553 
L 2631 2963 
z
" transform="scale(0.015625)"/>
      <path id="DejaVuSans-69" d="M 603 3500 
L 1178 3500 
L 1178 0 
L 603 0 
L 603 3500 
z
M 603 4863 
L 1178 4863 
L 1178 4134 
L 603 4134 
L 603 4863 
z
" transform="scale(0.015625)"/>
      <path id="DejaVuSans-6e" d="M 3513 2113 
L 3513 0 
L 2938 0 
L 2938 2094 
Q 2938 2591 2744 2837 
Q 2550 3084 2163 3084 
Q 1697 3084 1428 2787 
Q 1159 2491 1159 1978 
L 1159 0 
L 581 0 
L 581 3500 
L 1159 3500 
L 1159 2956 
Q 1366 3272 1645 3428 
Q 1925 3584 2291 3584 
Q 2894 3584 3203 3211 
Q 3513 2838 3513 2113 
z
" transform="scale(0.015625)"/>
      <path id="DejaVuSans-67" d="M 2906 1791 
Q 2906 2416 2648 2759 
Q 2391 3103 1925 3103 
Q 1463 3103 1205 2759 
Q 947 2416 947 1791 
Q 947 1169 1205 825 
Q 1463 481 1925 481 
Q 2391 481 2648 825 
Q 2906 1169 2906 1791 
z
M 3481 434 
Q 3481 -459 3084 -895 
Q 2688 -1331 1869 -1331 
Q 1566 -1331 1297 -1286 
Q 1028 -1241 775 -1147 
L 775 -588 
Q 1028 -725 1275 -790 
Q 1522 -856 1778 -856 
Q 2344 -856 2625 -561 
Q 2906 -266 2906 331 
L 2906 616 
Q 2728 306 2450 153 
Q 2172 0 1784 0 
Q 1141 0 747 490 
Q 353 981 353 1791 
Q 353 2603 747 3093 
Q 1141 3584 1784 3584 
Q 2172 3584 2450 3431 
Q 2728 3278 2906 2969 
L 2906 3500 
L 3481 3500 
L 3481 434 
z
" transform="scale(0.015625)"/>
      <path id="DejaVuSans-2d" d="M 313 2009 
L 1997 2009 
L 1997 1497 
L 313 1497 
L 313 2009 
z
" transform="scale(0.015625)"/>
      <path id="DejaVuSans-62" d="M 3116 1747 
Q 3116 2381 2855 2742 
Q 2594 3103 2138 3103 
Q 1681 3103 1420 2742 
Q 1159 2381 1159 1747 
Q 1159 1113 1420 752 
Q 1681 391 2138 391 
Q 2594 391 2855 752 
Q 3116 1113 3116 1747 
z
M 1159 2969 
Q 1341 3281 1617 3432 
Q 1894 3584 2278 3584 
Q 2916 3584 3314 3078 
Q 3713 2572 3713 1747 
Q 3713 922 3314 415 
Q 2916 -91 2278 -91 
Q 1894 -91 1617 61 
Q 1341 213 1159 525 
L 1159 0 
L 581 0 
L 581 4863 
L 1159 4863 
L 1159 2969 
z
" transform="scale(0.015625)"/>
      <path id="DejaVuSans-73" d="M 2834 3397 
L 2834 2853 
Q 2591 2978 2328 3040 
Q 2066 3103 1784 3103 
Q 1356 3103 1142 2972 
Q 928 2841 928 2578 
Q 928 2378 1081 2264 
Q 1234 2150 1697 2047 
L 1894 2003 
Q 2506 1872 2764 1633 
Q 3022 1394 3022 966 
Q 3022 478 2636 193 
Q 2250 -91 1575 -91 
Q 1294 -91 989 -36 
Q 684 19 347 128 
L 347 722 
Q 666 556 975 473 
Q 1284 391 1588 391 
Q 1994 391 2212 530 
Q 2431 669 2431 922 
Q 2431 1156 2273 1281 
Q 2116 1406 1581 1522 
L 1381 1569 
Q 847 1681 609 1914 
Q 372 2147 372 2553 
Q 372 3047 722 3315 
Q 1072 3584 1716 3584 
Q 2034 3584 2315 3537 
Q 2597 3491 2834 3397 
z
" transform="scale(0.015625)"/>
      <path id="DejaVuSans-64" d="M 2906 2969 
L 2906 4863 
L 3481 4863 
L 3481 0 
L 2906 0 
L 2906 525 
Q 2725 213 2448 61 
Q 2172 -91 1784 -91 
Q 1150 -91 751 415 
Q 353 922 353 1747 
Q 353 2572 751 3078 
Q 1150 3584 1784 3584 
Q 2172 3584 2448 3432 
Q 2725 3281 2906 2969 
z
M 947 1747 
Q 947 1113 1208 752 
Q 1469 391 1925 391 
Q 2381 391 2643 752 
Q 2906 1113 2906 1747 
Q 2906 2381 2643 2742 
Q 2381 3103 1925 3103 
Q 1469 3103 1208 2742 
Q 947 2381 947 1747 
z
" transform="scale(0.015625)"/>
      <path id="DejaVuSans-20" transform="scale(0.015625)"/>
      <path id="DejaVuSans-46" d="M 628 4666 
L 3309 4666 
L 3309 4134 
L 1259 4134 
L 1259 2759 
L 3109 2759 
L 3109 2228 
L 1259 2228 
L 1259 0 
L 628 0 
L 628 4666 
z
" transform="scale(0.015625)"/>
      <path id="DejaVuSans-6f" d="M 1959 3097 
Q 1497 3097 1228 2736 
Q 959 2375 959 1747 
Q 959 1119 1226 758 
Q 1494 397 1959 397 
Q 2419 397 2687 759 
Q 2956 1122 2956 1747 
Q 2956 2369 2687 2733 
Q 2419 3097 1959 3097 
z
M 1959 3584 
Q 2709 3584 3137 3096 
Q 3566 2609 3566 1747 
Q 3566 888 3137 398 
Q 2709 -91 1959 -91 
Q 1206 -91 779 398 
Q 353 888 353 1747 
Q 353 2609 779 3096 
Q 1206 3584 1959 3584 
z
" transform="scale(0.015625)"/>
      <path id="DejaVuSans-6d" d="M 3328 2828 
Q 3544 3216 3844 3400 
Q 4144 3584 4550 3584 
Q 5097 3584 5394 3201 
Q 5691 2819 5691 2113 
L 5691 0 
L 5113 0 
L 5113 2094 
Q 5113 2597 4934 2840 
Q 4756 3084 4391 3084 
Q 3944 3084 3684 2787 
Q 3425 2491 3425 1978 
L 3425 0 
L 2847 0 
L 2847 2094 
Q 2847 2600 2669 2842 
Q 2491 3084 2119 3084 
Q 1678 3084 1418 2786 
Q 1159 2488 1159 1978 
L 1159 0 
L 581 0 
L 581 3500 
L 1159 3500 
L 1159 2956 
Q 1356 3278 1631 3431 
Q 1906 3584 2284 3584 
Q 2666 3584 2933 3390 
Q 3200 3197 3328 2828 
z
" transform="scale(0.015625)"/>
      <path id="DejaVuSans-74" d="M 1172 4494 
L 1172 3500 
L 2356 3500 
L 2356 3053 
L 1172 3053 
L 1172 1153 
Q 1172 725 1289 603 
Q 1406 481 1766 481 
L 2356 481 
L 2356 0 
L 1766 0 
Q 1100 0 847 248 
Q 594 497 594 1153 
L 594 3053 
L 172 3053 
L 172 3500 
L 594 3500 
L 594 4494 
L 1172 4494 
z
" transform="scale(0.015625)"/>
      <path id="DejaVuSans-43" d="M 4122 4306 
L 4122 3641 
Q 3803 3938 3442 4084 
Q 3081 4231 2675 4231 
Q 1875 4231 1450 3742 
Q 1025 3253 1025 2328 
Q 1025 1406 1450 917 
Q 1875 428 2675 428 
Q 3081 428 3442 575 
Q 3803 722 4122 1019 
L 4122 359 
Q 3791 134 3420 21 
Q 3050 -91 2638 -91 
Q 1578 -91 968 557 
Q 359 1206 359 2328 
Q 359 3453 968 4101 
Q 1578 4750 2638 4750 
Q 3056 4750 3426 4639 
Q 3797 4528 4122 4306 
z
" transform="scale(0.015625)"/>
      <path id="DejaVuSans-6c" d="M 603 4863 
L 1178 4863 
L 1178 0 
L 603 0 
L 603 4863 
z
" transform="scale(0.015625)"/>
      <path id="DejaVuSans-66" d="M 2375 4863 
L 2375 4384 
L 1825 4384 
Q 1516 4384 1395 4259 
Q 1275 4134 1275 3809 
L 1275 3500 
L 2222 3500 
L 2222 3053 
L 1275 3053 
L 1275 0 
L 697 0 
L 697 3053 
L 147 3053 
L 147 3500 
L 697 3500 
L 697 3744 
Q 697 4328 969 4595 
Q 1241 4863 1831 4863 
L 2375 4863 
z
" transform="scale(0.015625)"/>
      <path id="DejaVuSans-55" d="M 556 4666 
L 1191 4666 
L 1191 1831 
Q 1191 1081 1462 751 
Q 1734 422 2344 422 
Q 2950 422 3222 751 
Q 3494 1081 3494 1831 
L 3494 4666 
L 4128 4666 
L 4128 1753 
Q 4128 841 3676 375 
Q 3225 -91 2344 -91 
Q 1459 -91 1007 375 
Q 556 841 556 1753 
L 556 4666 
z
" transform="scale(0.015625)"/>
      <path id="DejaVuSans-63" d="M 3122 3366 
L 3122 2828 
Q 2878 2963 2633 3030 
Q 2388 3097 2138 3097 
Q 1578 3097 1268 2742 
Q 959 2388 959 1747 
Q 959 1106 1268 751 
Q 1578 397 2138 397 
Q 2388 397 2633 464 
Q 2878 531 3122 666 
L 3122 134 
Q 2881 22 2623 -34 
Q 2366 -91 2075 -91 
Q 1284 -91 818 406 
Q 353 903 353 1747 
Q 353 2603 823 3093 
Q 1294 3584 2113 3584 
Q 2378 3584 2631 3529 
Q 2884 3475 3122 3366 
z
" transform="scale(0.015625)"/>
      <path id="DejaVuSans-41" d="M 2188 4044 
L 1331 1722 
L 3047 1722 
L 2188 4044 
z
M 1831 4666 
L 2547 4666 
L 4325 0 
L 3669 0 
L 3244 1197 
L 1141 1197 
L 716 0 
L 50 0 
L 1831 4666 
z
" transform="scale(0.015625)"/>
     </defs>
     <use xlink:href="#DejaVuSans-42"/>
     <use xlink:href="#DejaVuSans-65" x="68.603516"/>
     <use xlink:href="#DejaVuSans-61" x="130.126953"/>
     <use xlink:href="#DejaVuSans-72" x="191.40625"/>
     <use xlink:href="#DejaVuSans-69" x="232.519531"/>
     <use xlink:href="#DejaVuSans-6e" x="260.302734"/>
     <use xlink:href="#DejaVuSans-67" x="323.681641"/>
     <use xlink:href="#DejaVuSans-2d" x="387.158203"/>
     <use xlink:href="#DejaVuSans-62" x="423.242188"/>
     <use xlink:href="#DejaVuSans-61" x="486.71875"/>
     <use xlink:href="#DejaVuSans-73" x="547.998047"/>
     <use xlink:href="#DejaVuSans-65" x="600.097656"/>
     <use xlink:href="#DejaVuSans-64" x="661.621094"/>
     <use xlink:href="#DejaVuSans-20" x="725.097656"/>
     <use xlink:href="#DejaVuSans-46" x="756.884766"/>
     <use xlink:href="#DejaVuSans-6f" x="810.779297"/>
     <use xlink:href="#DejaVuSans-72" x="871.960938"/>
     <use xlink:href="#DejaVuSans-6d" x="911.324219"/>
     <use xlink:href="#DejaVuSans-61" x="1008.736328"/>
     <use xlink:href="#DejaVuSans-74" x="1070.015625"/>
     <use xlink:href="#DejaVuSans-69" x="1109.224609"/>
     <use xlink:href="#DejaVuSans-6f" x="1137.007812"/>
     <use xlink:href="#DejaVuSans-6e" x="1198.189453"/>
     <use xlink:href="#DejaVuSans-20" x="1261.568359"/>
     <use xlink:href="#DejaVuSans-43" x="1293.355469"/>
     <use xlink:href="#DejaVuSans-6f" x="1363.179688"/>
     <use xlink:href="#DejaVuSans-6e" x="1424.361328"/>
     <use xlink:href="#DejaVuSans-74" x="1487.740234"/>
     <use xlink:href="#DejaVuSans-72" x="1526.949219"/>
     <use xlink:href="#DejaVuSans-6f" x="1565.8125"/>
     <use xlink:href="#DejaVuSans-6c" x="1626.994141"/>
     <use xlink:href="#DejaVuSans-20" x="1654.777344"/>
     <use xlink:href="#DejaVuSans-6f" x="1686.564453"/>
     <use xlink:href="#DejaVuSans-66" x="1747.746094"/>
     <use xlink:href="#DejaVuSans-20" x="1782.951172"/>
     <use xlink:href="#DejaVuSans-55" x="1814.738281"/>
     <use xlink:href="#DejaVuSans-6e" x="1887.931641"/>
     <use xlink:href="#DejaVuSans-69" x="1951.310547"/>
     <use xlink:href="#DejaVuSans-63" x="1979.09375"/>
     <use xlink:href="#DejaVuSans-79" x="2034.074219"/>
     <use xlink:href="#DejaVuSans-63" x="2093.253906"/>
     <use xlink:href="#DejaVuSans-6c" x="2148.234375"/>
     <use xlink:href="#DejaVuSans-65" x="2176.017578"/>
     <use xlink:href="#DejaVuSans-20" x="2237.541016"/>
     <use xlink:href="#DejaVuSans-41" x="2269.328125"/>
     <use xlink:href="#DejaVuSans-67" x="2337.736328"/>
     <use xlink:href="#DejaVuSans-65" x="2401.212891"/>
     <use xlink:href="#DejaVuSans-6e" x="2462.736328"/>
     <use xlink:href="#DejaVuSans-74" x="2526.115234"/>
     <use xlink:href="#DejaVuSans-73" x="2565.324219"/>
    </g>
   </g>
   <g id="legend_1">
    <g id="patch_7">
     <path d="M 428.234375 150.510625 
L 511.4 150.510625 
Q 513.4 150.510625 513.4 148.510625 
L 513.4 76.12 
Q 513.4 74.12 511.4 74.12 
L 428.234375 74.12 
Q 426.234375 74.12 426.234375 76.12 
L 426.234375 148.510625 
Q 426.234375 150.510625 428.234375 150.510625 
z
" style="fill: #ffffff; opacity: 0.8; stroke: #cccccc; stroke-linejoin: miter"/>
    </g>
    <g id="line2d_52">
     <path d="M 430.234375 82.218437 
L 440.234375 82.218437 
L 450.234375 82.218437 
" style="fill: none; stroke-dasharray: 5.55,2.4; stroke-dashoffset: 0; stroke: #1f77b4; stroke-width: 1.5"/>
    </g>
    <g id="text_20">
     <!-- Leader 0 -->
     <g transform="translate(458.234375 85.718437) scale(0.1 -0.1)">
      <defs>
       <path id="DejaVuSans-4c" d="M 628 4666 
L 1259 4666 
L 1259 531 
L 3531 531 
L 3531 0 
L 628 0 
L 628 4666 
z
" transform="scale(0.015625)"/>
      </defs>
      <use xlink:href="#DejaVuSans-4c"/>
      <use xlink:href="#DejaVuSans-65" x="53.962891"/>
      <use xlink:href="#DejaVuSans-61" x="115.486328"/>
      <use xlink:href="#DejaVuSans-64" x="176.765625"/>
      <use xlink:href="#DejaVuSans-65" x="240.242188"/>
      <use xlink:href="#DejaVuSans-72" x="301.765625"/>
      <use xlink:href="#DejaVuSans-20" x="342.878906"/>
      <use xlink:href="#DejaVuSans-30" x="374.666016"/>
     </g>
    </g>
    <g id="line2d_53">
     <path d="M 430.234375 96.896563 
L 440.234375 96.896563 
L 450.234375 96.896563 
" style="fill: none; stroke-dasharray: 5.55,2.4; stroke-dashoffset: 0; stroke: #ff7f0e; stroke-width: 1.5"/>
    </g>
    <g id="text_21">
     <!-- Leader 1 -->
     <g transform="translate(458.234375 100.396563) scale(0.1 -0.1)">
      <use xlink:href="#DejaVuSans-4c"/>
      <use xlink:href="#DejaVuSans-65" x="53.962891"/>
      <use xlink:href="#DejaVuSans-61" x="115.486328"/>
      <use xlink:href="#DejaVuSans-64" x="176.765625"/>
      <use xlink:href="#DejaVuSans-65" x="240.242188"/>
      <use xlink:href="#DejaVuSans-72" x="301.765625"/>
      <use xlink:href="#DejaVuSans-20" x="342.878906"/>
      <use xlink:href="#DejaVuSans-31" x="374.666016"/>
     </g>
    </g>
    <g id="line2d_54">
     <path d="M 430.234375 111.574687 
L 440.234375 111.574687 
L 450.234375 111.574687 
" style="fill: none; stroke: #2ca02c; stroke-width: 1.5; stroke-linecap: square"/>
    </g>
    <g id="text_22">
     <!-- Follower 2 -->
     <g transform="translate(458.234375 115.074687) scale(0.1 -0.1)">
      <defs>
       <path id="DejaVuSans-77" d="M 269 3500 
L 844 3500 
L 1563 769 
L 2278 3500 
L 2956 3500 
L 3675 769 
L 4391 3500 
L 4966 3500 
L 4050 0 
L 3372 0 
L 2619 2869 
L 1863 0 
L 1184 0 
L 269 3500 
z
" transform="scale(0.015625)"/>
      </defs>
      <use xlink:href="#DejaVuSans-46"/>
      <use xlink:href="#DejaVuSans-6f" x="53.894531"/>
      <use xlink:href="#DejaVuSans-6c" x="115.076172"/>
      <use xlink:href="#DejaVuSans-6c" x="142.859375"/>
      <use xlink:href="#DejaVuSans-6f" x="170.642578"/>
      <use xlink:href="#DejaVuSans-77" x="231.824219"/>
      <use xlink:href="#DejaVuSans-65" x="313.611328"/>
      <use xlink:href="#DejaVuSans-72" x="375.134766"/>
      <use xlink:href="#DejaVuSans-20" x="416.248047"/>
      <use xlink:href="#DejaVuSans-32" x="448.035156"/>
     </g>
    </g>
    <g id="line2d_55">
     <path d="M 430.234375 126.252813 
L 440.234375 126.252813 
L 450.234375 126.252813 
" style="fill: none; stroke: #d62728; stroke-width: 1.5; stroke-linecap: square"/>
    </g>
    <g id="text_23">
     <!-- Follower 3 -->
     <g transform="translate(458.234375 129.752813) scale(0.1 -0.1)">
      <use xlink:href="#DejaVuSans-46"/>
      <use xlink:href="#DejaVuSans-6f" x="53.894531"/>
      <use xlink:href="#DejaVuSans-6c" x="115.076172"/>
      <use xlink:href="#DejaVuSans-6c" x="142.859375"/>
      <use xlink:href="#DejaVuSans-6f" x="170.642578"/>
      <use xlink:href="#DejaVuSans-77" x="231.824219"/>
      <use xlink:href="#DejaVuSans-65" x="313.611328"/>
      <use xlink:href="#DejaVuSans-72" x="375.134766"/>
      <use xlink:href="#DejaVuSans-20" x="416.248047"/>
      <use xlink:href="#DejaVuSans-33" x="448.035156"/>
     </g>
    </g>
    <g id="line2d_56">
     <path d="M 430.234375 140.930938 
L 440.234375 140.930938 
L 450.234375 140.930938 
" style="fill: none; stroke: #9467bd; stroke-width: 1.5; stroke-linecap: square"/>
    </g>
    <g id="text_24">
     <!-- Follower 4 -->
     <g transform="translate(458.234375 144.430938) scale(0.1 -0.1)">
      <use xlink:href="#DejaVuSans-46"/>
      <use xlink:href="#DejaVuSans-6f" x="53.894531"/>
      <use xlink:href="#DejaVuSans-6c" x="115.076172"/>
      <use xlink:href="#DejaVuSans-6c" x="142.859375"/>
      <use xlink:href="#DejaVuSans-6f" x="170.642578"/>
      <use xlink:href="#DejaVuSans-77" x="231.824219"/>
      <use xlink:href="#DejaVuSans-65" x="313.611328"/>
      <use xlink:href="#DejaVuSans-72" x="375.134766"/>
      <use xlink:href="#DejaVuSans-20" x="416.248047"/>
      <use xlink:href="#DejaVuSans-34" x="448.035156"/>
     </g>
    </g>
   </g>
  </g>
 </g>
 <defs>
  <clipPath id="pa5bcc28619">
   <rect x="72" y="69.12" width="446.4" height="443.52"/>
  </clipPath>
 </defs>
</svg>
