<?xml version="1.0" encoding="utf-8" standalone="no"?>
<!DOCTYPE svg PUBLIC "-//W3C//DTD SVG 1.1//EN"
  "http://www.w3.org/Graphics/SVG/1.1/DTD/svg11.dtd">
<svg xmlns:xlink="http://www.w3.org/1999/xlink" width="576pt" height="576pt" viewBox="0 0 576 576" xmlns="http://www.w3.org/2000/svg" version="1.1">
 <metadata>
  <rdf:RDF xmlns:dc="http://purl.org/dc/elements/1.1/" xmlns:cc="http://creativecommons.org/ns#" xmlns:rdf="http://www.w3.org/1999/02/22-rdf-syntax-ns#">
   <cc:Work>
    <dc:type rdf:resource="http://purl.org/dc/dcmitype/StillImage"/>
    <dc:date>2024-12-01T13:06:32.982232</dc:date>
    <dc:format>image/svg+xml</dc:format>
    <dc:creator>
     <cc:Agent>
      <dc:title>Matplotlib v3.9.2, https://matplotlib.org/</dc:title>
     </cc:Agent>
    </dc:creator>
   </cc:Work>
  </rdf:RDF>
 </metadata>
 <defs>
  <style type="text/css">*{stroke-linejoin: round; stroke-linecap: butt}</style>
 </defs>
 <g id="figure_1">
  <g id="patch_1">
   <path d="M 0 576 
L 576 576 
L 576 0 
L 0 0 
z
" style="fill: #ffffff"/>
  </g>
  <g id="axes_1">
   <g id="patch_2">
    <path d="M 72 512.64 
L 518.4 512.64 
L 518.4 69.12 
L 72 69.12 
z
" style="fill: #ffffff"/>
   </g>
   <g id="PathCollection_1">
    <defs>
     <path id="mc58ed0fff3" d="M 0 5 
C 1.326016 5 2.597899 4.473168 3.535534 3.535534 
C 4.473168 2.597899 5 1.326016 5 0 
C 5 -1.326016 4.473168 -2.597899 3.535534 -3.535534 
C 2.597899 -4.473168 1.326016 -5 0 -5 
C -1.326016 -5 -2.597899 -4.473168 -3.535534 -3.535534 
C -4.473168 -2.597899 -5 -1.326016 -5 0 
C -5 1.326016 -4.473168 2.597899 -3.535534 3.535534 
C -2.597899 4.473168 -1.326016 5 0 5 
z
" style="stroke: #ff0000"/>
    </defs>
    <g clip-path="url(#p79d663b509)">
     <use xlink:href="#mc58ed0fff3" x="402.456252" y="213.049071" style="fill: #ff0000; stroke: #ff0000"/>
    </g>
   </g>
   <g id="PathCollection_2">
    <g clip-path="url(#p79d663b509)">
     <use xlink:href="#mc58ed0fff3" x="402.456252" y="162.200884" style="fill: #ff0000; stroke: #ff0000"/>
    </g>
   </g>
   <g id="PathCollection_3">
    <g clip-path="url(#p79d663b509)">
     <use xlink:href="#mc58ed0fff3" x="450.1363" y="114.520842" style="fill: #ff0000; stroke: #ff0000"/>
    </g>
   </g>
   <g id="PathCollection_4">
    <g clip-path="url(#p79d663b509)">
     <use xlink:href="#mc58ed0fff3" x="498.017793" y="162.30157" style="fill: #ff0000; stroke: #ff0000"/>
    </g>
   </g>
   <g id="PathCollection_5">
    <g clip-path="url(#p79d663b509)">
     <use xlink:href="#mc58ed0fff3" x="498.109091" y="211.830042" style="fill: #ff0000; stroke: #ff0000"/>
    </g>
   </g>
   <g id="matplotlib.axis_1">
    <g id="xtick_1">
     <g id="line2d_1">
      <path d="M 97.367129 512.64 
L 97.367129 69.12 
" clip-path="url(#p79d663b509)" style="fill: none; stroke: #b0b0b0; stroke-width: 0.8; stroke-linecap: square"/>
     </g>
     <g id="line2d_2">
      <defs>
       <path id="me24bdc32fd" d="M 0 0 
L 0 3.5 
" style="stroke: #000000; stroke-width: 0.8"/>
      </defs>
      <g>
       <use xlink:href="#me24bdc32fd" x="97.367129" y="512.64" style="stroke: #000000; stroke-width: 0.8"/>
      </g>
     </g>
     <g id="text_1">
      <!-- −1 -->
      <g transform="translate(89.996036 527.238438) scale(0.1 -0.1)">
       <defs>
        <path id="DejaVuSans-2212" d="M 678 2272 
L 4684 2272 
L 4684 1741 
L 678 1741 
L 678 2272 
z
" transform="scale(0.015625)"/>
        <path id="DejaVuSans-31" d="M 794 531 
L 1825 531 
L 1825 4091 
L 703 3866 
L 703 4441 
L 1819 4666 
L 2450 4666 
L 2450 531 
L 3481 531 
L 3481 0 
L 794 0 
L 794 531 
z
" transform="scale(0.015625)"/>
       </defs>
       <use xlink:href="#DejaVuSans-2212"/>
       <use xlink:href="#DejaVuSans-31" x="83.789062"/>
      </g>
     </g>
    </g>
    <g id="xtick_2">
     <g id="line2d_3">
      <path d="M 148.215317 512.64 
L 148.215317 69.12 
" clip-path="url(#p79d663b509)" style="fill: none; stroke: #b0b0b0; stroke-width: 0.8; stroke-linecap: square"/>
     </g>
     <g id="line2d_4">
      <g>
       <use xlink:href="#me24bdc32fd" x="148.215317" y="512.64" style="stroke: #000000; stroke-width: 0.8"/>
      </g>
     </g>
     <g id="text_2">
      <!-- 0 -->
      <g transform="translate(145.034067 527.238438) scale(0.1 -0.1)">
       <defs>
        <path id="DejaVuSans-30" d="M 2034 4250 
Q 1547 4250 1301 3770 
Q 1056 3291 1056 2328 
Q 1056 1369 1301 889 
Q 1547 409 2034 409 
Q 2525 409 2770 889 
Q 3016 1369 3016 2328 
Q 3016 3291 2770 3770 
Q 2525 4250 2034 4250 
z
M 2034 4750 
Q 2819 4750 3233 4129 
Q 3647 3509 3647 2328 
Q 3647 1150 3233 529 
Q 2819 -91 2034 -91 
Q 1250 -91 836 529 
Q 422 1150 422 2328 
Q 422 3509 836 4129 
Q 1250 4750 2034 4750 
z
" transform="scale(0.015625)"/>
       </defs>
       <use xlink:href="#DejaVuSans-30"/>
      </g>
     </g>
    </g>
    <g id="xtick_3">
     <g id="line2d_5">
      <path d="M 199.063504 512.64 
L 199.063504 69.12 
" clip-path="url(#p79d663b509)" style="fill: none; stroke: #b0b0b0; stroke-width: 0.8; stroke-linecap: square"/>
     </g>
     <g id="line2d_6">
      <g>
       <use xlink:href="#me24bdc32fd" x="199.063504" y="512.64" style="stroke: #000000; stroke-width: 0.8"/>
      </g>
     </g>
     <g id="text_3">
      <!-- 1 -->
      <g transform="translate(195.882254 527.238438) scale(0.1 -0.1)">
       <use xlink:href="#DejaVuSans-31"/>
      </g>
     </g>
    </g>
    <g id="xtick_4">
     <g id="line2d_7">
      <path d="M 249.911691 512.64 
L 249.911691 69.12 
" clip-path="url(#p79d663b509)" style="fill: none; stroke: #b0b0b0; stroke-width: 0.8; stroke-linecap: square"/>
     </g>
     <g id="line2d_8">
      <g>
       <use xlink:href="#me24bdc32fd" x="249.911691" y="512.64" style="stroke: #000000; stroke-width: 0.8"/>
      </g>
     </g>
     <g id="text_4">
      <!-- 2 -->
      <g transform="translate(246.730441 527.238438) scale(0.1 -0.1)">
       <defs>
        <path id="DejaVuSans-32" d="M 1228 531 
L 3431 531 
L 3431 0 
L 469 0 
L 469 531 
Q 828 903 1448 1529 
Q 2069 2156 2228 2338 
Q 2531 2678 2651 2914 
Q 2772 3150 2772 3378 
Q 2772 3750 2511 3984 
Q 2250 4219 1831 4219 
Q 1534 4219 1204 4116 
Q 875 4013 500 3803 
L 500 4441 
Q 881 4594 1212 4672 
Q 1544 4750 1819 4750 
Q 2544 4750 2975 4387 
Q 3406 4025 3406 3419 
Q 3406 3131 3298 2873 
Q 3191 2616 2906 2266 
Q 2828 2175 2409 1742 
Q 1991 1309 1228 531 
z
" transform="scale(0.015625)"/>
       </defs>
       <use xlink:href="#DejaVuSans-32"/>
      </g>
     </g>
    </g>
    <g id="xtick_5">
     <g id="line2d_9">
      <path d="M 300.759878 512.64 
L 300.759878 69.12 
" clip-path="url(#p79d663b509)" style="fill: none; stroke: #b0b0b0; stroke-width: 0.8; stroke-linecap: square"/>
     </g>
     <g id="line2d_10">
      <g>
       <use xlink:href="#me24bdc32fd" x="300.759878" y="512.64" style="stroke: #000000; stroke-width: 0.8"/>
      </g>
     </g>
     <g id="text_5">
      <!-- 3 -->
      <g transform="translate(297.578628 527.238438) scale(0.1 -0.1)">
       <defs>
        <path id="DejaVuSans-33" d="M 2597 2516 
Q 3050 2419 3304 2112 
Q 3559 1806 3559 1356 
Q 3559 666 3084 287 
Q 2609 -91 1734 -91 
Q 1441 -91 1130 -33 
Q 819 25 488 141 
L 488 750 
Q 750 597 1062 519 
Q 1375 441 1716 441 
Q 2309 441 2620 675 
Q 2931 909 2931 1356 
Q 2931 1769 2642 2001 
Q 2353 2234 1838 2234 
L 1294 2234 
L 1294 2753 
L 1863 2753 
Q 2328 2753 2575 2939 
Q 2822 3125 2822 3475 
Q 2822 3834 2567 4026 
Q 2313 4219 1838 4219 
Q 1578 4219 1281 4162 
Q 984 4106 628 3988 
L 628 4550 
Q 988 4650 1302 4700 
Q 1616 4750 1894 4750 
Q 2613 4750 3031 4423 
Q 3450 4097 3450 3541 
Q 3450 3153 3228 2886 
Q 3006 2619 2597 2516 
z
" transform="scale(0.015625)"/>
       </defs>
       <use xlink:href="#DejaVuSans-33"/>
      </g>
     </g>
    </g>
    <g id="xtick_6">
     <g id="line2d_11">
      <path d="M 351.608065 512.64 
L 351.608065 69.12 
" clip-path="url(#p79d663b509)" style="fill: none; stroke: #b0b0b0; stroke-width: 0.8; stroke-linecap: square"/>
     </g>
     <g id="line2d_12">
      <g>
       <use xlink:href="#me24bdc32fd" x="351.608065" y="512.64" style="stroke: #000000; stroke-width: 0.8"/>
      </g>
     </g>
     <g id="text_6">
      <!-- 4 -->
      <g transform="translate(348.426815 527.238438) scale(0.1 -0.1)">
       <defs>
        <path id="DejaVuSans-34" d="M 2419 4116 
L 825 1625 
L 2419 1625 
L 2419 4116 
z
M 2253 4666 
L 3047 4666 
L 3047 1625 
L 3713 1625 
L 3713 1100 
L 3047 1100 
L 3047 0 
L 2419 0 
L 2419 1100 
L 313 1100 
L 313 1709 
L 2253 4666 
z
" transform="scale(0.015625)"/>
       </defs>
       <use xlink:href="#DejaVuSans-34"/>
      </g>
     </g>
    </g>
    <g id="xtick_7">
     <g id="line2d_13">
      <path d="M 402.456252 512.64 
L 402.456252 69.12 
" clip-path="url(#p79d663b509)" style="fill: none; stroke: #b0b0b0; stroke-width: 0.8; stroke-linecap: square"/>
     </g>
     <g id="line2d_14">
      <g>
       <use xlink:href="#me24bdc32fd" x="402.456252" y="512.64" style="stroke: #000000; stroke-width: 0.8"/>
      </g>
     </g>
     <g id="text_7">
      <!-- 5 -->
      <g transform="translate(399.275002 527.238438) scale(0.1 -0.1)">
       <defs>
        <path id="DejaVuSans-35" d="M 691 4666 
L 3169 4666 
L 3169 4134 
L 1269 4134 
L 1269 2991 
Q 1406 3038 1543 3061 
Q 1681 3084 1819 3084 
Q 2600 3084 3056 2656 
Q 3513 2228 3513 1497 
Q 3513 744 3044 326 
Q 2575 -91 1722 -91 
Q 1428 -91 1123 -41 
Q 819 9 494 109 
L 494 744 
Q 775 591 1075 516 
Q 1375 441 1709 441 
Q 2250 441 2565 725 
Q 2881 1009 2881 1497 
Q 2881 1984 2565 2268 
Q 2250 2553 1709 2553 
Q 1456 2553 1204 2497 
Q 953 2441 691 2322 
L 691 4666 
z
" transform="scale(0.015625)"/>
       </defs>
       <use xlink:href="#DejaVuSans-35"/>
      </g>
     </g>
    </g>
    <g id="xtick_8">
     <g id="line2d_15">
      <path d="M 453.304439 512.64 
L 453.304439 69.12 
" clip-path="url(#p79d663b509)" style="fill: none; stroke: #b0b0b0; stroke-width: 0.8; stroke-linecap: square"/>
     </g>
     <g id="line2d_16">
      <g>
       <use xlink:href="#me24bdc32fd" x="453.304439" y="512.64" style="stroke: #000000; stroke-width: 0.8"/>
      </g>
     </g>
     <g id="text_8">
      <!-- 6 -->
      <g transform="translate(450.123189 527.238438) scale(0.1 -0.1)">
       <defs>
        <path id="DejaVuSans-36" d="M 2113 2584 
Q 1688 2584 1439 2293 
Q 1191 2003 1191 1497 
Q 1191 994 1439 701 
Q 1688 409 2113 409 
Q 2538 409 2786 701 
Q 3034 994 3034 1497 
Q 3034 2003 2786 2293 
Q 2538 2584 2113 2584 
z
M 3366 4563 
L 3366 3988 
Q 3128 4100 2886 4159 
Q 2644 4219 2406 4219 
Q 1781 4219 1451 3797 
Q 1122 3375 1075 2522 
Q 1259 2794 1537 2939 
Q 1816 3084 2150 3084 
Q 2853 3084 3261 2657 
Q 3669 2231 3669 1497 
Q 3669 778 3244 343 
Q 2819 -91 2113 -91 
Q 1303 -91 875 529 
Q 447 1150 447 2328 
Q 447 3434 972 4092 
Q 1497 4750 2381 4750 
Q 2619 4750 2861 4703 
Q 3103 4656 3366 4563 
z
" transform="scale(0.015625)"/>
       </defs>
       <use xlink:href="#DejaVuSans-36"/>
      </g>
     </g>
    </g>
    <g id="xtick_9">
     <g id="line2d_17">
      <path d="M 504.152626 512.64 
L 504.152626 69.12 
" clip-path="url(#p79d663b509)" style="fill: none; stroke: #b0b0b0; stroke-width: 0.8; stroke-linecap: square"/>
     </g>
     <g id="line2d_18">
      <g>
       <use xlink:href="#me24bdc32fd" x="504.152626" y="512.64" style="stroke: #000000; stroke-width: 0.8"/>
      </g>
     </g>
     <g id="text_9">
      <!-- 7 -->
      <g transform="translate(500.971376 527.238438) scale(0.1 -0.1)">
       <defs>
        <path id="DejaVuSans-37" d="M 525 4666 
L 3525 4666 
L 3525 4397 
L 1831 0 
L 1172 0 
L 2766 4134 
L 525 4134 
L 525 4666 
z
" transform="scale(0.015625)"/>
       </defs>
       <use xlink:href="#DejaVuSans-37"/>
      </g>
     </g>
    </g>
    <g id="text_10">
     <!-- X Position -->
     <g transform="translate(270.721875 540.916563) scale(0.1 -0.1)">
      <defs>
       <path id="DejaVuSans-58" d="M 403 4666 
L 1081 4666 
L 2241 2931 
L 3406 4666 
L 4084 4666 
L 2584 2425 
L 4184 0 
L 3506 0 
L 2194 1984 
L 872 0 
L 191 0 
L 1856 2491 
L 403 4666 
z
" transform="scale(0.015625)"/>
       <path id="DejaVuSans-20" transform="scale(0.015625)"/>
       <path id="DejaVuSans-50" d="M 1259 4147 
L 1259 2394 
L 2053 2394 
Q 2494 2394 2734 2622 
Q 2975 2850 2975 3272 
Q 2975 3691 2734 3919 
Q 2494 4147 2053 4147 
L 1259 4147 
z
M 628 4666 
L 2053 4666 
Q 2838 4666 3239 4311 
Q 3641 3956 3641 3272 
Q 3641 2581 3239 2228 
Q 2838 1875 2053 1875 
L 1259 1875 
L 1259 0 
L 628 0 
L 628 4666 
z
" transform="scale(0.015625)"/>
       <path id="DejaVuSans-6f" d="M 1959 3097 
Q 1497 3097 1228 2736 
Q 959 2375 959 1747 
Q 959 1119 1226 758 
Q 1494 397 1959 397 
Q 2419 397 2687 759 
Q 2956 1122 2956 1747 
Q 2956 2369 2687 2733 
Q 2419 3097 1959 3097 
z
M 1959 3584 
Q 2709 3584 3137 3096 
Q 3566 2609 3566 1747 
Q 3566 888 3137 398 
Q 2709 -91 1959 -91 
Q 1206 -91 779 398 
Q 353 888 353 1747 
Q 353 2609 779 3096 
Q 1206 3584 1959 3584 
z
" transform="scale(0.015625)"/>
       <path id="DejaVuSans-73" d="M 2834 3397 
L 2834 2853 
Q 2591 2978 2328 3040 
Q 2066 3103 1784 3103 
Q 1356 3103 1142 2972 
Q 928 2841 928 2578 
Q 928 2378 1081 2264 
Q 1234 2150 1697 2047 
L 1894 2003 
Q 2506 1872 2764 1633 
Q 3022 1394 3022 966 
Q 3022 478 2636 193 
Q 2250 -91 1575 -91 
Q 1294 -91 989 -36 
Q 684 19 347 128 
L 347 722 
Q 666 556 975 473 
Q 1284 391 1588 391 
Q 1994 391 2212 530 
Q 2431 669 2431 922 
Q 2431 1156 2273 1281 
Q 2116 1406 1581 1522 
L 1381 1569 
Q 847 1681 609 1914 
Q 372 2147 372 2553 
Q 372 3047 722 3315 
Q 1072 3584 1716 3584 
Q 2034 3584 2315 3537 
Q 2597 3491 2834 3397 
z
" transform="scale(0.015625)"/>
       <path id="DejaVuSans-69" d="M 603 3500 
L 1178 3500 
L 1178 0 
L 603 0 
L 603 3500 
z
M 603 4863 
L 1178 4863 
L 1178 4134 
L 603 4134 
L 603 4863 
z
" transform="scale(0.015625)"/>
       <path id="DejaVuSans-74" d="M 1172 4494 
L 1172 3500 
L 2356 3500 
L 2356 3053 
L 1172 3053 
L 1172 1153 
Q 1172 725 1289 603 
Q 1406 481 1766 481 
L 2356 481 
L 2356 0 
L 1766 0 
Q 1100 0 847 248 
Q 594 497 594 1153 
L 594 3053 
L 172 3053 
L 172 3500 
L 594 3500 
L 594 4494 
L 1172 4494 
z
" transform="scale(0.015625)"/>
       <path id="DejaVuSans-6e" d="M 3513 2113 
L 3513 0 
L 2938 0 
L 2938 2094 
Q 2938 2591 2744 2837 
Q 2550 3084 2163 3084 
Q 1697 3084 1428 2787 
Q 1159 2491 1159 1978 
L 1159 0 
L 581 0 
L 581 3500 
L 1159 3500 
L 1159 2956 
Q 1366 3272 1645 3428 
Q 1925 3584 2291 3584 
Q 2894 3584 3203 3211 
Q 3513 2838 3513 2113 
z
" transform="scale(0.015625)"/>
      </defs>
      <use xlink:href="#DejaVuSans-58"/>
      <use xlink:href="#DejaVuSans-20" x="68.505859"/>
      <use xlink:href="#DejaVuSans-50" x="100.292969"/>
      <use xlink:href="#DejaVuSans-6f" x="156.970703"/>
      <use xlink:href="#DejaVuSans-73" x="218.152344"/>
      <use xlink:href="#DejaVuSans-69" x="270.251953"/>
      <use xlink:href="#DejaVuSans-74" x="298.035156"/>
      <use xlink:href="#DejaVuSans-69" x="337.244141"/>
      <use xlink:href="#DejaVuSans-6f" x="365.027344"/>
      <use xlink:href="#DejaVuSans-6e" x="426.208984"/>
     </g>
    </g>
   </g>
   <g id="matplotlib.axis_2">
    <g id="ytick_1">
     <g id="line2d_19">
      <path d="M 72 467.290006 
L 518.4 467.290006 
" clip-path="url(#p79d663b509)" style="fill: none; stroke: #b0b0b0; stroke-width: 0.8; stroke-linecap: square"/>
     </g>
     <g id="line2d_20">
      <defs>
       <path id="mae52f8da9a" d="M 0 0 
L -3.5 0 
" style="stroke: #000000; stroke-width: 0.8"/>
      </defs>
      <g>
       <use xlink:href="#mae52f8da9a" x="72" y="467.290006" style="stroke: #000000; stroke-width: 0.8"/>
      </g>
     </g>
     <g id="text_11">
      <!-- 0 -->
      <g transform="translate(58.6375 471.089225) scale(0.1 -0.1)">
       <use xlink:href="#DejaVuSans-30"/>
      </g>
     </g>
    </g>
    <g id="ytick_2">
     <g id="line2d_21">
      <path d="M 72 416.441819 
L 518.4 416.441819 
" clip-path="url(#p79d663b509)" style="fill: none; stroke: #b0b0b0; stroke-width: 0.8; stroke-linecap: square"/>
     </g>
     <g id="line2d_22">
      <g>
       <use xlink:href="#mae52f8da9a" x="72" y="416.441819" style="stroke: #000000; stroke-width: 0.8"/>
      </g>
     </g>
     <g id="text_12">
      <!-- 1 -->
      <g transform="translate(58.6375 420.241038) scale(0.1 -0.1)">
       <use xlink:href="#DejaVuSans-31"/>
      </g>
     </g>
    </g>
    <g id="ytick_3">
     <g id="line2d_23">
      <path d="M 72 365.593632 
L 518.4 365.593632 
" clip-path="url(#p79d663b509)" style="fill: none; stroke: #b0b0b0; stroke-width: 0.8; stroke-linecap: square"/>
     </g>
     <g id="line2d_24">
      <g>
       <use xlink:href="#mae52f8da9a" x="72" y="365.593632" style="stroke: #000000; stroke-width: 0.8"/>
      </g>
     </g>
     <g id="text_13">
      <!-- 2 -->
      <g transform="translate(58.6375 369.392851) scale(0.1 -0.1)">
       <use xlink:href="#DejaVuSans-32"/>
      </g>
     </g>
    </g>
    <g id="ytick_4">
     <g id="line2d_25">
      <path d="M 72 314.745445 
L 518.4 314.745445 
" clip-path="url(#p79d663b509)" style="fill: none; stroke: #b0b0b0; stroke-width: 0.8; stroke-linecap: square"/>
     </g>
     <g id="line2d_26">
      <g>
       <use xlink:href="#mae52f8da9a" x="72" y="314.745445" style="stroke: #000000; stroke-width: 0.8"/>
      </g>
     </g>
     <g id="text_14">
      <!-- 3 -->
      <g transform="translate(58.6375 318.544664) scale(0.1 -0.1)">
       <use xlink:href="#DejaVuSans-33"/>
      </g>
     </g>
    </g>
    <g id="ytick_5">
     <g id="line2d_27">
      <path d="M 72 263.897258 
L 518.4 263.897258 
" clip-path="url(#p79d663b509)" style="fill: none; stroke: #b0b0b0; stroke-width: 0.8; stroke-linecap: square"/>
     </g>
     <g id="line2d_28">
      <g>
       <use xlink:href="#mae52f8da9a" x="72" y="263.897258" style="stroke: #000000; stroke-width: 0.8"/>
      </g>
     </g>
     <g id="text_15">
      <!-- 4 -->
      <g transform="translate(58.6375 267.696477) scale(0.1 -0.1)">
       <use xlink:href="#DejaVuSans-34"/>
      </g>
     </g>
    </g>
    <g id="ytick_6">
     <g id="line2d_29">
      <path d="M 72 213.049071 
L 518.4 213.049071 
" clip-path="url(#p79d663b509)" style="fill: none; stroke: #b0b0b0; stroke-width: 0.8; stroke-linecap: square"/>
     </g>
     <g id="line2d_30">
      <g>
       <use xlink:href="#mae52f8da9a" x="72" y="213.049071" style="stroke: #000000; stroke-width: 0.8"/>
      </g>
     </g>
     <g id="text_16">
      <!-- 5 -->
      <g transform="translate(58.6375 216.84829) scale(0.1 -0.1)">
       <use xlink:href="#DejaVuSans-35"/>
      </g>
     </g>
    </g>
    <g id="ytick_7">
     <g id="line2d_31">
      <path d="M 72 162.200884 
L 518.4 162.200884 
" clip-path="url(#p79d663b509)" style="fill: none; stroke: #b0b0b0; stroke-width: 0.8; stroke-linecap: square"/>
     </g>
     <g id="line2d_32">
      <g>
       <use xlink:href="#mae52f8da9a" x="72" y="162.200884" style="stroke: #000000; stroke-width: 0.8"/>
      </g>
     </g>
     <g id="text_17">
      <!-- 6 -->
      <g transform="translate(58.6375 166.000102) scale(0.1 -0.1)">
       <use xlink:href="#DejaVuSans-36"/>
      </g>
     </g>
    </g>
    <g id="ytick_8">
     <g id="line2d_33">
      <path d="M 72 111.352697 
L 518.4 111.352697 
" clip-path="url(#p79d663b509)" style="fill: none; stroke: #b0b0b0; stroke-width: 0.8; stroke-linecap: square"/>
     </g>
     <g id="line2d_34">
      <g>
       <use xlink:href="#mae52f8da9a" x="72" y="111.352697" style="stroke: #000000; stroke-width: 0.8"/>
      </g>
     </g>
     <g id="text_18">
      <!-- 7 -->
      <g transform="translate(58.6375 115.151915) scale(0.1 -0.1)">
       <use xlink:href="#DejaVuSans-37"/>
      </g>
     </g>
    </g>
    <g id="text_19">
     <!-- Y Position -->
     <g transform="translate(52.557812 314.987031) rotate(-90) scale(0.1 -0.1)">
      <defs>
       <path id="DejaVuSans-59" d="M -13 4666 
L 666 4666 
L 1959 2747 
L 3244 4666 
L 3922 4666 
L 2272 2222 
L 2272 0 
L 1638 0 
L 1638 2222 
L -13 4666 
z
" transform="scale(0.015625)"/>
      </defs>
      <use xlink:href="#DejaVuSans-59"/>
      <use xlink:href="#DejaVuSans-20" x="61.083984"/>
      <use xlink:href="#DejaVuSans-50" x="92.871094"/>
      <use xlink:href="#DejaVuSans-6f" x="149.548828"/>
      <use xlink:href="#DejaVuSans-73" x="210.730469"/>
      <use xlink:href="#DejaVuSans-69" x="262.830078"/>
      <use xlink:href="#DejaVuSans-74" x="290.613281"/>
      <use xlink:href="#DejaVuSans-69" x="329.822266"/>
      <use xlink:href="#DejaVuSans-6f" x="357.605469"/>
      <use xlink:href="#DejaVuSans-6e" x="418.787109"/>
     </g>
    </g>
   </g>
   <g id="line2d_35">
    <path d="M 402.456252 213.049071 
L 402.456252 162.200884 
" clip-path="url(#p79d663b509)" style="fill: none; stroke: #000000; stroke-opacity: 0.4; stroke-width: 1.5; stroke-linecap: square"/>
   </g>
   <g id="line2d_36">
    <path d="M 402.456252 213.049071 
L 498.109091 211.830042 
" clip-path="url(#p79d663b509)" style="fill: none; stroke: #000000; stroke-opacity: 0.4; stroke-width: 1.5; stroke-linecap: square"/>
   </g>
   <g id="line2d_37">
    <path d="M 402.456252 162.200884 
L 402.456252 213.049071 
" clip-path="url(#p79d663b509)" style="fill: none; stroke: #000000; stroke-opacity: 0.4; stroke-width: 1.5; stroke-linecap: square"/>
   </g>
   <g id="line2d_38">
    <path d="M 402.456252 162.200884 
L 450.1363 114.520842 
" clip-path="url(#p79d663b509)" style="fill: none; stroke: #000000; stroke-opacity: 0.4; stroke-width: 1.5; stroke-linecap: square"/>
   </g>
   <g id="line2d_39">
    <path d="M 402.456252 162.200884 
L 498.017793 162.30157 
" clip-path="url(#p79d663b509)" style="fill: none; stroke: #000000; stroke-opacity: 0.4; stroke-width: 1.5; stroke-linecap: square"/>
   </g>
   <g id="line2d_40">
    <path d="M 402.456252 162.200884 
L 498.109091 211.830042 
" clip-path="url(#p79d663b509)" style="fill: none; stroke: #000000; stroke-opacity: 0.4; stroke-width: 1.5; stroke-linecap: square"/>
   </g>
   <g id="line2d_41">
    <path d="M 450.1363 114.520842 
L 402.456252 162.200884 
" clip-path="url(#p79d663b509)" style="fill: none; stroke: #000000; stroke-opacity: 0.4; stroke-width: 1.5; stroke-linecap: square"/>
   </g>
   <g id="line2d_42">
    <path d="M 450.1363 114.520842 
L 498.017793 162.30157 
" clip-path="url(#p79d663b509)" style="fill: none; stroke: #000000; stroke-opacity: 0.4; stroke-width: 1.5; stroke-linecap: square"/>
   </g>
   <g id="line2d_43">
    <path d="M 498.017793 162.30157 
L 402.456252 162.200884 
" clip-path="url(#p79d663b509)" style="fill: none; stroke: #000000; stroke-opacity: 0.4; stroke-width: 1.5; stroke-linecap: square"/>
   </g>
   <g id="line2d_44">
    <path d="M 498.017793 162.30157 
L 450.1363 114.520842 
" clip-path="url(#p79d663b509)" style="fill: none; stroke: #000000; stroke-opacity: 0.4; stroke-width: 1.5; stroke-linecap: square"/>
   </g>
   <g id="line2d_45">
    <path d="M 498.017793 162.30157 
L 498.109091 211.830042 
" clip-path="url(#p79d663b509)" style="fill: none; stroke: #000000; stroke-opacity: 0.4; stroke-width: 1.5; stroke-linecap: square"/>
   </g>
   <g id="line2d_46">
    <path d="M 498.109091 211.830042 
L 402.456252 213.049071 
" clip-path="url(#p79d663b509)" style="fill: none; stroke: #000000; stroke-opacity: 0.4; stroke-width: 1.5; stroke-linecap: square"/>
   </g>
   <g id="line2d_47">
    <path d="M 498.109091 211.830042 
L 402.456252 162.200884 
" clip-path="url(#p79d663b509)" style="fill: none; stroke: #000000; stroke-opacity: 0.4; stroke-width: 1.5; stroke-linecap: square"/>
   </g>
   <g id="line2d_48">
    <path d="M 498.109091 211.830042 
L 498.017793 162.30157 
" clip-path="url(#p79d663b509)" style="fill: none; stroke: #000000; stroke-opacity: 0.4; stroke-width: 1.5; stroke-linecap: square"/>
   </g>
   <g id="line2d_49">
    <path d="M 148.266165 467.239158 
L 402.456252 213.049071 
L 402.456252 213.049071 
" clip-path="url(#p79d663b509)" style="fill: none; stroke-dasharray: 5.55,2.4; stroke-dashoffset: 0; stroke: #1f77b4; stroke-width: 1.5"/>
   </g>
   <g id="line2d_50">
    <path d="M 148.266165 416.390971 
L 402.456252 162.200884 
L 402.456252 162.200884 
" clip-path="url(#p79d663b509)" style="fill: none; stroke-dasharray: 5.55,2.4; stroke-dashoffset: 0; stroke: #ff7f0e; stroke-width: 1.5"/>
   </g>
   <g id="line2d_51">
    <path d="M 92.290909 360.506128 
L 95.065027 359.724142 
L 99.497287 358.704954 
L 104.487528 357.77646 
L 110.102465 356.949071 
L 116.01606 356.289829 
L 122.575003 355.784716 
L 129.015815 355.499485 
L 135.827576 355.407294 
L 142.921384 355.522719 
L 150.939037 355.889723 
L 159.061429 356.487868 
L 167.906953 357.355572 
L 178.757309 358.648648 
L 195.896521 360.951649 
L 216.567072 363.679358 
L 228.918429 365.090129 
L 238.376852 365.96067 
L 245.328365 366.38745 
L 250.234086 366.47024 
L 253.3824 366.322399 
L 255.605873 366.008187 
L 257.014935 365.602441 
L 257.950135 365.116011 
L 258.542199 364.572979 
L 258.923077 363.926289 
L 259.136798 363.084366 
L 259.169369 361.995581 
L 258.97886 360.364879 
L 258.390602 357.560525 
L 257.0409 352.396763 
L 254.729702 344.464285 
L 251.511881 334.258302 
L 247.479542 321.416788 
L 246.15908 316.443263 
L 245.384071 312.719571 
L 244.955855 309.618475 
L 244.814183 307.061734 
L 244.901528 304.856519 
L 245.204835 302.858451 
L 245.685957 301.156068 
L 246.34954 299.626165 
L 247.186486 298.260501 
L 248.185643 297.049537 
L 249.4062 295.92403 
L 250.858088 294.895613 
L 252.545668 293.970849 
L 254.657085 293.07899 
L 257.219377 292.249107 
L 260.556041 291.41246 
L 266.749236 290.141653 
L 272.185553 288.930633 
L 275.883489 287.879821 
L 279.043411 286.751614 
L 281.882714 285.504565 
L 284.507521 284.116157 
L 287.100892 282.488507 
L 289.566743 280.677665 
L 292.065667 278.558396 
L 294.579173 276.123615 
L 297.164089 273.300496 
L 299.933976 269.937291 
L 303.168709 265.643147 
L 308.3702 258.297353 
L 313.472023 251.229383 
L 316.979733 246.747992 
L 320.27899 242.893136 
L 323.577039 239.381022 
L 327.15016 235.906305 
L 331.395971 232.102606 
L 344.303236 220.770221 
L 348.111393 216.950622 
L 354.826889 209.799923 
L 359.58195 204.949066 
L 380.497898 184.156734 
L 450.1363 114.520842 
L 450.1363 114.520842 
" clip-path="url(#p79d663b509)" style="fill: none; stroke: #2ca02c; stroke-width: 1.5; stroke-linecap: square"/>
   </g>
   <g id="line2d_52">
    <path d="M 260.081655 391.021278 
L 260.325169 395.01151 
L 260.361966 399.033496 
L 260.175925 402.410124 
L 259.815062 405.168245 
L 259.310897 407.418367 
L 258.707598 409.135993 
L 258.137293 410.150128 
L 257.75366 410.462681 
L 257.601618 410.376793 
L 257.558157 410.019412 
L 257.730624 409.190404 
L 258.246199 407.860169 
L 259.212175 405.987998 
L 260.812605 403.412068 
L 263.164517 400.082438 
L 266.998615 395.084545 
L 280.477383 378.087596 
L 282.648353 375.763418 
L 284.385646 374.221223 
L 285.978751 373.110362 
L 287.48397 372.329441 
L 289.118589 371.741265 
L 290.922895 371.339828 
L 293.037845 371.105648 
L 295.737576 371.045161 
L 299.472706 371.206246 
L 306.198918 371.764965 
L 314.741739 372.41538 
L 319.916247 372.58729 
L 324.432512 372.516581 
L 328.417362 372.23738 
L 332.13266 371.762064 
L 335.70599 371.087277 
L 339.255903 370.192443 
L 342.890761 369.040463 
L 346.607553 367.62232 
L 350.504394 365.891325 
L 354.665758 363.791558 
L 359.065955 361.315198 
L 363.57989 358.519048 
L 368.170201 355.413279 
L 372.713037 352.070171 
L 377.255412 348.44643 
L 381.834295 344.503177 
L 386.612606 340.089473 
L 391.893284 334.901744 
L 398.140604 328.439888 
L 405.018166 321.007957 
L 410.330492 314.964235 
L 414.042883 310.41944 
L 416.801517 306.704565 
L 418.992844 303.386481 
L 420.752046 300.320623 
L 422.179468 297.384966 
L 423.327514 294.51515 
L 424.234372 291.653388 
L 424.925106 288.745343 
L 425.412683 285.738349 
L 425.699017 282.580742 
L 425.776248 279.222191 
L 425.632185 275.666009 
L 425.254824 271.870138 
L 424.611502 267.694681 
L 423.666204 263.05959 
L 422.315588 257.593152 
L 419.630711 247.883154 
L 418.106681 241.901603 
L 417.286712 237.812693 
L 416.816712 234.358669 
L 416.620832 231.285561 
L 416.662424 228.443456 
L 416.922647 225.782841 
L 417.389093 223.255564 
L 418.075558 220.76377 
L 418.986493 218.308743 
L 420.122471 215.892312 
L 421.511742 213.465908 
L 423.163445 211.031118 
L 425.126238 208.538578 
L 427.419507 205.989341 
L 430.113504 203.333115 
L 433.236856 200.570121 
L 436.879018 197.648838 
L 441.145543 194.516857 
L 446.154727 191.120802 
L 452.116652 187.354762 
L 459.261814 183.111789 
L 468.107169 178.129107 
L 479.486774 171.988825 
L 496.512095 163.082376 
L 498.017793 162.30157 
L 498.017793 162.30157 
" clip-path="url(#p79d663b509)" style="fill: none; stroke: #d62728; stroke-width: 1.5; stroke-linecap: square"/>
   </g>
   <g id="line2d_53">
    <path d="M 275.333844 436.784012 
L 274.36865 437.925548 
L 271.910962 440.533012 
L 268.802587 443.512111 
L 265.259702 446.603234 
L 261.66573 449.454971 
L 258.346672 451.821587 
L 255.63904 453.500441 
L 253.641687 454.493944 
L 252.463061 454.858771 
L 251.969669 454.826257 
L 251.864661 454.64424 
L 251.980273 454.342838 
L 252.474888 453.791668 
L 253.56306 452.957165 
L 255.382838 451.868317 
L 257.937469 450.607563 
L 261.368127 449.165733 
L 266.001472 447.475005 
L 271.800881 445.605036 
L 279.073964 443.50197 
L 287.998426 441.163881 
L 314.343041 434.446081 
L 322.863751 431.83349 
L 339.43446 426.473638 
L 348.534762 423.3314 
L 354.975611 420.87757 
L 360.37903 418.582829 
L 365.21955 416.28681 
L 369.814169 413.861124 
L 374.348925 411.213592 
L 378.90624 408.295801 
L 383.615925 405.013902 
L 388.317528 401.467534 
L 392.926578 397.714158 
L 397.252352 393.909387 
L 401.244899 390.107439 
L 404.864528 386.360028 
L 408.126451 382.666968 
L 411.002754 379.080812 
L 413.55288 375.54992 
L 415.789308 372.075142 
L 417.726414 368.658272 
L 419.40665 365.245696 
L 420.838177 361.838528 
L 422.04995 358.380633 
L 423.043991 354.872174 
L 423.835968 351.254361 
L 424.422331 347.526469 
L 424.806941 343.62738 
L 424.982955 339.556048 
L 424.946315 335.25004 
L 424.682165 330.582587 
L 424.163041 325.4248 
L 423.338568 319.519602 
L 422.064654 312.095734 
L 418.411971 291.577099 
L 417.774758 286.27518 
L 417.461259 281.852952 
L 417.40254 277.98397 
L 417.566193 274.474624 
L 417.933929 271.257717 
L 418.494197 268.267987 
L 419.245528 265.44269 
L 420.199056 262.721987 
L 421.353604 260.104407 
L 422.704682 257.587837 
L 424.281414 255.116394 
L 426.130047 252.637647 
L 428.220705 250.205193 
L 430.656898 247.717438 
L 433.408245 245.228146 
L 436.545476 242.690118 
L 440.156034 240.059646 
L 444.269127 237.342784 
L 448.984807 234.499473 
L 454.412838 231.492406 
L 460.66751 228.286195 
L 468.044155 224.760781 
L 477.043501 220.717249 
L 488.758302 215.713949 
L 498.109091 211.830042 
L 498.109091 211.830042 
" clip-path="url(#p79d663b509)" style="fill: none; stroke: #9467bd; stroke-width: 1.5; stroke-linecap: square"/>
   </g>
   <g id="patch_3">
    <path d="M 72 512.64 
L 72 69.12 
" style="fill: none; stroke: #000000; stroke-width: 0.8; stroke-linejoin: miter; stroke-linecap: square"/>
   </g>
   <g id="patch_4">
    <path d="M 518.4 512.64 
L 518.4 69.12 
" style="fill: none; stroke: #000000; stroke-width: 0.8; stroke-linejoin: miter; stroke-linecap: square"/>
   </g>
   <g id="patch_5">
    <path d="M 72 512.64 
L 518.4 512.64 
" style="fill: none; stroke: #000000; stroke-width: 0.8; stroke-linejoin: miter; stroke-linecap: square"/>
   </g>
   <g id="patch_6">
    <path d="M 72 69.12 
L 518.4 69.12 
" style="fill: none; stroke: #000000; stroke-width: 0.8; stroke-linejoin: miter; stroke-linecap: square"/>
   </g>
   <g id="text_20">
    <!-- Bearing-based Formation Control of Double Integrator Agents -->
    <g transform="translate(110.295938 63.12) scale(0.12 -0.12)">
     <defs>
      <path id="DejaVuSans-42" d="M 1259 2228 
L 1259 519 
L 2272 519 
Q 2781 519 3026 730 
Q 3272 941 3272 1375 
Q 3272 1813 3026 2020 
Q 2781 2228 2272 2228 
L 1259 2228 
z
M 1259 4147 
L 1259 2741 
L 2194 2741 
Q 2656 2741 2882 2914 
Q 3109 3088 3109 3444 
Q 3109 3797 2882 3972 
Q 2656 4147 2194 4147 
L 1259 4147 
z
M 628 4666 
L 2241 4666 
Q 2963 4666 3353 4366 
Q 3744 4066 3744 3513 
Q 3744 3084 3544 2831 
Q 3344 2578 2956 2516 
Q 3422 2416 3680 2098 
Q 3938 1781 3938 1306 
Q 3938 681 3513 340 
Q 3088 0 2303 0 
L 628 0 
L 628 4666 
z
" transform="scale(0.015625)"/>
      <path id="DejaVuSans-65" d="M 3597 1894 
L 3597 1613 
L 953 1613 
Q 991 1019 1311 708 
Q 1631 397 2203 397 
Q 2534 397 2845 478 
Q 3156 559 3463 722 
L 3463 178 
Q 3153 47 2828 -22 
Q 2503 -91 2169 -91 
Q 1331 -91 842 396 
Q 353 884 353 1716 
Q 353 2575 817 3079 
Q 1281 3584 2069 3584 
Q 2775 3584 3186 3129 
Q 3597 2675 3597 1894 
z
M 3022 2063 
Q 3016 2534 2758 2815 
Q 2500 3097 2075 3097 
Q 1594 3097 1305 2825 
Q 1016 2553 972 2059 
L 3022 2063 
z
" transform="scale(0.015625)"/>
      <path id="DejaVuSans-61" d="M 2194 1759 
Q 1497 1759 1228 1600 
Q 959 1441 959 1056 
Q 959 750 1161 570 
Q 1363 391 1709 391 
Q 2188 391 2477 730 
Q 2766 1069 2766 1631 
L 2766 1759 
L 2194 1759 
z
M 3341 1997 
L 3341 0 
L 2766 0 
L 2766 531 
Q 2569 213 2275 61 
Q 1981 -91 1556 -91 
Q 1019 -91 701 211 
Q 384 513 384 1019 
Q 384 1609 779 1909 
Q 1175 2209 1959 2209 
L 2766 2209 
L 2766 2266 
Q 2766 2663 2505 2880 
Q 2244 3097 1772 3097 
Q 1472 3097 1187 3025 
Q 903 2953 641 2809 
L 641 3341 
Q 956 3463 1253 3523 
Q 1550 3584 1831 3584 
Q 2591 3584 2966 3190 
Q 3341 2797 3341 1997 
z
" transform="scale(0.015625)"/>
      <path id="DejaVuSans-72" d="M 2631 2963 
Q 2534 3019 2420 3045 
Q 2306 3072 2169 3072 
Q 1681 3072 1420 2755 
Q 1159 2438 1159 1844 
L 1159 0 
L 581 0 
L 581 3500 
L 1159 3500 
L 1159 2956 
Q 1341 3275 1631 3429 
Q 1922 3584 2338 3584 
Q 2397 3584 2469 3576 
Q 2541 3569 2628 3553 
L 2631 2963 
z
" transform="scale(0.015625)"/>
      <path id="DejaVuSans-67" d="M 2906 1791 
Q 2906 2416 2648 2759 
Q 2391 3103 1925 3103 
Q 1463 3103 1205 2759 
Q 947 2416 947 1791 
Q 947 1169 1205 825 
Q 1463 481 1925 481 
Q 2391 481 2648 825 
Q 2906 1169 2906 1791 
z
M 3481 434 
Q 3481 -459 3084 -895 
Q 2688 -1331 1869 -1331 
Q 1566 -1331 1297 -1286 
Q 1028 -1241 775 -1147 
L 775 -588 
Q 1028 -725 1275 -790 
Q 1522 -856 1778 -856 
Q 2344 -856 2625 -561 
Q 2906 -266 2906 331 
L 2906 616 
Q 2728 306 2450 153 
Q 2172 0 1784 0 
Q 1141 0 747 490 
Q 353 981 353 1791 
Q 353 2603 747 3093 
Q 1141 3584 1784 3584 
Q 2172 3584 2450 3431 
Q 2728 3278 2906 2969 
L 2906 3500 
L 3481 3500 
L 3481 434 
z
" transform="scale(0.015625)"/>
      <path id="DejaVuSans-2d" d="M 313 2009 
L 1997 2009 
L 1997 1497 
L 313 1497 
L 313 2009 
z
" transform="scale(0.015625)"/>
      <path id="DejaVuSans-62" d="M 3116 1747 
Q 3116 2381 2855 2742 
Q 2594 3103 2138 3103 
Q 1681 3103 1420 2742 
Q 1159 2381 1159 1747 
Q 1159 1113 1420 752 
Q 1681 391 2138 391 
Q 2594 391 2855 752 
Q 3116 1113 3116 1747 
z
M 1159 2969 
Q 1341 3281 1617 3432 
Q 1894 3584 2278 3584 
Q 2916 3584 3314 3078 
Q 3713 2572 3713 1747 
Q 3713 922 3314 415 
Q 2916 -91 2278 -91 
Q 1894 -91 1617 61 
Q 1341 213 1159 525 
L 1159 0 
L 581 0 
L 581 4863 
L 1159 4863 
L 1159 2969 
z
" transform="scale(0.015625)"/>
      <path id="DejaVuSans-64" d="M 2906 2969 
L 2906 4863 
L 3481 4863 
L 3481 0 
L 2906 0 
L 2906 525 
Q 2725 213 2448 61 
Q 2172 -91 1784 -91 
Q 1150 -91 751 415 
Q 353 922 353 1747 
Q 353 2572 751 3078 
Q 1150 3584 1784 3584 
Q 2172 3584 2448 3432 
Q 2725 3281 2906 2969 
z
M 947 1747 
Q 947 1113 1208 752 
Q 1469 391 1925 391 
Q 2381 391 2643 752 
Q 2906 1113 2906 1747 
Q 2906 2381 2643 2742 
Q 2381 3103 1925 3103 
Q 1469 3103 1208 2742 
Q 947 2381 947 1747 
z
" transform="scale(0.015625)"/>
      <path id="DejaVuSans-46" d="M 628 4666 
L 3309 4666 
L 3309 4134 
L 1259 4134 
L 1259 2759 
L 3109 2759 
L 3109 2228 
L 1259 2228 
L 1259 0 
L 628 0 
L 628 4666 
z
" transform="scale(0.015625)"/>
      <path id="DejaVuSans-6d" d="M 3328 2828 
Q 3544 3216 3844 3400 
Q 4144 3584 4550 3584 
Q 5097 3584 5394 3201 
Q 5691 2819 5691 2113 
L 5691 0 
L 5113 0 
L 5113 2094 
Q 5113 2597 4934 2840 
Q 4756 3084 4391 3084 
Q 3944 3084 3684 2787 
Q 3425 2491 3425 1978 
L 3425 0 
L 2847 0 
L 2847 2094 
Q 2847 2600 2669 2842 
Q 2491 3084 2119 3084 
Q 1678 3084 1418 2786 
Q 1159 2488 1159 1978 
L 1159 0 
L 581 0 
L 581 3500 
L 1159 3500 
L 1159 2956 
Q 1356 3278 1631 3431 
Q 1906 3584 2284 3584 
Q 2666 3584 2933 3390 
Q 3200 3197 3328 2828 
z
" transform="scale(0.015625)"/>
      <path id="DejaVuSans-43" d="M 4122 4306 
L 4122 3641 
Q 3803 3938 3442 4084 
Q 3081 4231 2675 4231 
Q 1875 4231 1450 3742 
Q 1025 3253 1025 2328 
Q 1025 1406 1450 917 
Q 1875 428 2675 428 
Q 3081 428 3442 575 
Q 3803 722 4122 1019 
L 4122 359 
Q 3791 134 3420 21 
Q 3050 -91 2638 -91 
Q 1578 -91 968 557 
Q 359 1206 359 2328 
Q 359 3453 968 4101 
Q 1578 4750 2638 4750 
Q 3056 4750 3426 4639 
Q 3797 4528 4122 4306 
z
" transform="scale(0.015625)"/>
      <path id="DejaVuSans-6c" d="M 603 4863 
L 1178 4863 
L 1178 0 
L 603 0 
L 603 4863 
z
" transform="scale(0.015625)"/>
      <path id="DejaVuSans-66" d="M 2375 4863 
L 2375 4384 
L 1825 4384 
Q 1516 4384 1395 4259 
Q 1275 4134 1275 3809 
L 1275 3500 
L 2222 3500 
L 2222 3053 
L 1275 3053 
L 1275 0 
L 697 0 
L 697 3053 
L 147 3053 
L 147 3500 
L 697 3500 
L 697 3744 
Q 697 4328 969 4595 
Q 1241 4863 1831 4863 
L 2375 4863 
z
" transform="scale(0.015625)"/>
      <path id="DejaVuSans-44" d="M 1259 4147 
L 1259 519 
L 2022 519 
Q 2988 519 3436 956 
Q 3884 1394 3884 2338 
Q 3884 3275 3436 3711 
Q 2988 4147 2022 4147 
L 1259 4147 
z
M 628 4666 
L 1925 4666 
Q 3281 4666 3915 4102 
Q 4550 3538 4550 2338 
Q 4550 1131 3912 565 
Q 3275 0 1925 0 
L 628 0 
L 628 4666 
z
" transform="scale(0.015625)"/>
      <path id="DejaVuSans-75" d="M 544 1381 
L 544 3500 
L 1119 3500 
L 1119 1403 
Q 1119 906 1312 657 
Q 1506 409 1894 409 
Q 2359 409 2629 706 
Q 2900 1003 2900 1516 
L 2900 3500 
L 3475 3500 
L 3475 0 
L 2900 0 
L 2900 538 
Q 2691 219 2414 64 
Q 2138 -91 1772 -91 
Q 1169 -91 856 284 
Q 544 659 544 1381 
z
M 1991 3584 
L 1991 3584 
z
" transform="scale(0.015625)"/>
      <path id="DejaVuSans-49" d="M 628 4666 
L 1259 4666 
L 1259 0 
L 628 0 
L 628 4666 
z
" transform="scale(0.015625)"/>
      <path id="DejaVuSans-41" d="M 2188 4044 
L 1331 1722 
L 3047 1722 
L 2188 4044 
z
M 1831 4666 
L 2547 4666 
L 4325 0 
L 3669 0 
L 3244 1197 
L 1141 1197 
L 716 0 
L 50 0 
L 1831 4666 
z
" transform="scale(0.015625)"/>
     </defs>
     <use xlink:href="#DejaVuSans-42"/>
     <use xlink:href="#DejaVuSans-65" x="68.603516"/>
     <use xlink:href="#DejaVuSans-61" x="130.126953"/>
     <use xlink:href="#DejaVuSans-72" x="191.40625"/>
     <use xlink:href="#DejaVuSans-69" x="232.519531"/>
     <use xlink:href="#DejaVuSans-6e" x="260.302734"/>
     <use xlink:href="#DejaVuSans-67" x="323.681641"/>
     <use xlink:href="#DejaVuSans-2d" x="387.158203"/>
     <use xlink:href="#DejaVuSans-62" x="423.242188"/>
     <use xlink:href="#DejaVuSans-61" x="486.71875"/>
     <use xlink:href="#DejaVuSans-73" x="547.998047"/>
     <use xlink:href="#DejaVuSans-65" x="600.097656"/>
     <use xlink:href="#DejaVuSans-64" x="661.621094"/>
     <use xlink:href="#DejaVuSans-20" x="725.097656"/>
     <use xlink:href="#DejaVuSans-46" x="756.884766"/>
     <use xlink:href="#DejaVuSans-6f" x="810.779297"/>
     <use xlink:href="#DejaVuSans-72" x="871.960938"/>
     <use xlink:href="#DejaVuSans-6d" x="911.324219"/>
     <use xlink:href="#DejaVuSans-61" x="1008.736328"/>
     <use xlink:href="#DejaVuSans-74" x="1070.015625"/>
     <use xlink:href="#DejaVuSans-69" x="1109.224609"/>
     <use xlink:href="#DejaVuSans-6f" x="1137.007812"/>
     <use xlink:href="#DejaVuSans-6e" x="1198.189453"/>
     <use xlink:href="#DejaVuSans-20" x="1261.568359"/>
     <use xlink:href="#DejaVuSans-43" x="1293.355469"/>
     <use xlink:href="#DejaVuSans-6f" x="1363.179688"/>
     <use xlink:href="#DejaVuSans-6e" x="1424.361328"/>
     <use xlink:href="#DejaVuSans-74" x="1487.740234"/>
     <use xlink:href="#DejaVuSans-72" x="1526.949219"/>
     <use xlink:href="#DejaVuSans-6f" x="1565.8125"/>
     <use xlink:href="#DejaVuSans-6c" x="1626.994141"/>
     <use xlink:href="#DejaVuSans-20" x="1654.777344"/>
     <use xlink:href="#DejaVuSans-6f" x="1686.564453"/>
     <use xlink:href="#DejaVuSans-66" x="1747.746094"/>
     <use xlink:href="#DejaVuSans-20" x="1782.951172"/>
     <use xlink:href="#DejaVuSans-44" x="1814.738281"/>
     <use xlink:href="#DejaVuSans-6f" x="1891.740234"/>
     <use xlink:href="#DejaVuSans-75" x="1952.921875"/>
     <use xlink:href="#DejaVuSans-62" x="2016.300781"/>
     <use xlink:href="#DejaVuSans-6c" x="2079.777344"/>
     <use xlink:href="#DejaVuSans-65" x="2107.560547"/>
     <use xlink:href="#DejaVuSans-20" x="2169.083984"/>
     <use xlink:href="#DejaVuSans-49" x="2200.871094"/>
     <use xlink:href="#DejaVuSans-6e" x="2230.363281"/>
     <use xlink:href="#DejaVuSans-74" x="2293.742188"/>
     <use xlink:href="#DejaVuSans-65" x="2332.951172"/>
     <use xlink:href="#DejaVuSans-67" x="2394.474609"/>
     <use xlink:href="#DejaVuSans-72" x="2457.951172"/>
     <use xlink:href="#DejaVuSans-61" x="2499.064453"/>
     <use xlink:href="#DejaVuSans-74" x="2560.34375"/>
     <use xlink:href="#DejaVuSans-6f" x="2599.552734"/>
     <use xlink:href="#DejaVuSans-72" x="2660.734375"/>
     <use xlink:href="#DejaVuSans-20" x="2701.847656"/>
     <use xlink:href="#DejaVuSans-41" x="2733.634766"/>
     <use xlink:href="#DejaVuSans-67" x="2802.042969"/>
     <use xlink:href="#DejaVuSans-65" x="2865.519531"/>
     <use xlink:href="#DejaVuSans-6e" x="2927.042969"/>
     <use xlink:href="#DejaVuSans-74" x="2990.421875"/>
     <use xlink:href="#DejaVuSans-73" x="3029.630859"/>
    </g>
   </g>
   <g id="legend_1">
    <g id="patch_7">
     <path d="M 79 150.510625 
L 162.165625 150.510625 
Q 164.165625 150.510625 164.165625 148.510625 
L 164.165625 76.12 
Q 164.165625 74.12 162.165625 74.12 
L 79 74.12 
Q 77 74.12 77 76.12 
L 77 148.510625 
Q 77 150.510625 79 150.510625 
z
" style="fill: #ffffff; opacity: 0.8; stroke: #cccccc; stroke-linejoin: miter"/>
    </g>
    <g id="line2d_54">
     <path d="M 81 82.218437 
L 91 82.218437 
L 101 82.218437 
" style="fill: none; stroke-dasharray: 5.55,2.4; stroke-dashoffset: 0; stroke: #1f77b4; stroke-width: 1.5"/>
    </g>
    <g id="text_21">
     <!-- Leader 0 -->
     <g transform="translate(109 85.718437) scale(0.1 -0.1)">
      <defs>
       <path id="DejaVuSans-4c" d="M 628 4666 
L 1259 4666 
L 1259 531 
L 3531 531 
L 3531 0 
L 628 0 
L 628 4666 
z
" transform="scale(0.015625)"/>
      </defs>
      <use xlink:href="#DejaVuSans-4c"/>
      <use xlink:href="#DejaVuSans-65" x="53.962891"/>
      <use xlink:href="#DejaVuSans-61" x="115.486328"/>
      <use xlink:href="#DejaVuSans-64" x="176.765625"/>
      <use xlink:href="#DejaVuSans-65" x="240.242188"/>
      <use xlink:href="#DejaVuSans-72" x="301.765625"/>
      <use xlink:href="#DejaVuSans-20" x="342.878906"/>
      <use xlink:href="#DejaVuSans-30" x="374.666016"/>
     </g>
    </g>
    <g id="line2d_55">
     <path d="M 81 96.896563 
L 91 96.896563 
L 101 96.896563 
" style="fill: none; stroke-dasharray: 5.55,2.4; stroke-dashoffset: 0; stroke: #ff7f0e; stroke-width: 1.5"/>
    </g>
    <g id="text_22">
     <!-- Leader 1 -->
     <g transform="translate(109 100.396563) scale(0.1 -0.1)">
      <use xlink:href="#DejaVuSans-4c"/>
      <use xlink:href="#DejaVuSans-65" x="53.962891"/>
      <use xlink:href="#DejaVuSans-61" x="115.486328"/>
      <use xlink:href="#DejaVuSans-64" x="176.765625"/>
      <use xlink:href="#DejaVuSans-65" x="240.242188"/>
      <use xlink:href="#DejaVuSans-72" x="301.765625"/>
      <use xlink:href="#DejaVuSans-20" x="342.878906"/>
      <use xlink:href="#DejaVuSans-31" x="374.666016"/>
     </g>
    </g>
    <g id="line2d_56">
     <path d="M 81 111.574687 
L 91 111.574687 
L 101 111.574687 
" style="fill: none; stroke: #2ca02c; stroke-width: 1.5; stroke-linecap: square"/>
    </g>
    <g id="text_23">
     <!-- Follower 2 -->
     <g transform="translate(109 115.074687) scale(0.1 -0.1)">
      <defs>
       <path id="DejaVuSans-77" d="M 269 3500 
L 844 3500 
L 1563 769 
L 2278 3500 
L 2956 3500 
L 3675 769 
L 4391 3500 
L 4966 3500 
L 4050 0 
L 3372 0 
L 2619 2869 
L 1863 0 
L 1184 0 
L 269 3500 
z
" transform="scale(0.015625)"/>
      </defs>
      <use xlink:href="#DejaVuSans-46"/>
      <use xlink:href="#DejaVuSans-6f" x="53.894531"/>
      <use xlink:href="#DejaVuSans-6c" x="115.076172"/>
      <use xlink:href="#DejaVuSans-6c" x="142.859375"/>
      <use xlink:href="#DejaVuSans-6f" x="170.642578"/>
      <use xlink:href="#DejaVuSans-77" x="231.824219"/>
      <use xlink:href="#DejaVuSans-65" x="313.611328"/>
      <use xlink:href="#DejaVuSans-72" x="375.134766"/>
      <use xlink:href="#DejaVuSans-20" x="416.248047"/>
      <use xlink:href="#DejaVuSans-32" x="448.035156"/>
     </g>
    </g>
    <g id="line2d_57">
     <path d="M 81 126.252813 
L 91 126.252813 
L 101 126.252813 
" style="fill: none; stroke: #d62728; stroke-width: 1.5; stroke-linecap: square"/>
    </g>
    <g id="text_24">
     <!-- Follower 3 -->
     <g transform="translate(109 129.752813) scale(0.1 -0.1)">
      <use xlink:href="#DejaVuSans-46"/>
      <use xlink:href="#DejaVuSans-6f" x="53.894531"/>
      <use xlink:href="#DejaVuSans-6c" x="115.076172"/>
      <use xlink:href="#DejaVuSans-6c" x="142.859375"/>
      <use xlink:href="#DejaVuSans-6f" x="170.642578"/>
      <use xlink:href="#DejaVuSans-77" x="231.824219"/>
      <use xlink:href="#DejaVuSans-65" x="313.611328"/>
      <use xlink:href="#DejaVuSans-72" x="375.134766"/>
      <use xlink:href="#DejaVuSans-20" x="416.248047"/>
      <use xlink:href="#DejaVuSans-33" x="448.035156"/>
     </g>
    </g>
    <g id="line2d_58">
     <path d="M 81 140.930938 
L 91 140.930938 
L 101 140.930938 
" style="fill: none; stroke: #9467bd; stroke-width: 1.5; stroke-linecap: square"/>
    </g>
    <g id="text_25">
     <!-- Follower 4 -->
     <g transform="translate(109 144.430938) scale(0.1 -0.1)">
      <use xlink:href="#DejaVuSans-46"/>
      <use xlink:href="#DejaVuSans-6f" x="53.894531"/>
      <use xlink:href="#DejaVuSans-6c" x="115.076172"/>
      <use xlink:href="#DejaVuSans-6c" x="142.859375"/>
      <use xlink:href="#DejaVuSans-6f" x="170.642578"/>
      <use xlink:href="#DejaVuSans-77" x="231.824219"/>
      <use xlink:href="#DejaVuSans-65" x="313.611328"/>
      <use xlink:href="#DejaVuSans-72" x="375.134766"/>
      <use xlink:href="#DejaVuSans-20" x="416.248047"/>
      <use xlink:href="#DejaVuSans-34" x="448.035156"/>
     </g>
    </g>
   </g>
  </g>
 </g>
 <defs>
  <clipPath id="p79d663b509">
   <rect x="72" y="69.12" width="446.4" height="443.52"/>
  </clipPath>
 </defs>
</svg>
